<svg width="276" height="99" viewBox="0 0 276 99" fill="none" xmlns="http://www.w3.org/2000/svg">
<path d="M20.442 33.1977H0V1.21785H6.21364V27.2438H20.442V33.1977Z" fill="#5390F4"/>
<path d="M29.1567 19.5758H39.0625C39.0025 18.343 38.5522 17.3055 37.7117 16.4636C36.9012 15.6216 35.7005 15.2006 34.1096 15.2006C32.6687 15.2006 31.4981 15.6517 30.5975 16.5538C29.697 17.4559 29.2167 18.4632 29.1567 19.5758ZM39.6478 25.3494L44.6458 26.8379C44.0454 28.8826 42.8597 30.5666 41.0887 31.8897C39.3477 33.2128 37.1714 33.8743 34.5599 33.8743C31.378 33.8743 28.6764 32.8068 26.4551 30.6718C24.2338 28.5068 23.1232 25.62 23.1232 22.0115C23.1232 18.5835 24.2038 15.787 26.3651 13.6219C28.5263 11.4268 31.0778 10.3292 34.0195 10.3292C37.4415 10.3292 40.1131 11.3516 42.0342 13.3964C43.9854 15.4412 44.9609 18.2527 44.9609 21.8311C44.9609 22.0717 44.9459 22.3423 44.9159 22.643C44.9159 22.9437 44.9159 23.1843 44.9159 23.3647L44.8709 23.6805H29.0216C29.0816 25.1238 29.652 26.3267 30.7326 27.2889C31.8132 28.2512 33.104 28.7323 34.6049 28.7323C37.1564 28.7323 38.8374 27.6046 39.6478 25.3494Z" fill="#5390F4"/>
<path d="M48.326 27.1536C48.326 25.2592 48.9413 23.7406 50.172 22.5979C51.4028 21.4552 52.9937 20.7336 54.9448 20.4329L60.393 19.621C61.5037 19.4706 62.059 18.9444 62.059 18.0423C62.059 17.2003 61.7288 16.5087 61.0684 15.9674C60.4381 15.4261 59.5225 15.1555 58.3218 15.1555C57.0611 15.1555 56.0555 15.5013 55.305 16.1929C54.5846 16.8845 54.1794 17.7416 54.0893 18.7639L48.7762 17.6363C48.9863 15.7118 49.9319 14.0128 51.6129 12.5394C53.2939 11.0659 55.5152 10.3292 58.2768 10.3292C61.5787 10.3292 64.0101 11.1261 65.5711 12.7198C67.132 14.2835 67.9124 16.2982 67.9124 18.7639V29.6795C67.9124 31.0026 68.0025 32.1754 68.1826 33.1977H62.6894C62.5393 32.5362 62.4642 31.6491 62.4642 30.5365C61.0534 32.7317 58.8771 33.8292 55.9354 33.8292C53.6541 33.8292 51.808 33.1677 50.3972 31.8446C49.0164 30.5215 48.326 28.9578 48.326 27.1536ZM57.1962 29.3638C58.607 29.3638 59.7627 28.9729 60.6632 28.191C61.5937 27.3791 62.059 26.056 62.059 24.2217V23.2294L57.0611 23.9962C55.23 24.2668 54.3145 25.199 54.3145 26.7927C54.3145 27.5144 54.5696 28.1309 55.0799 28.6421C55.5902 29.1232 56.2956 29.3638 57.1962 29.3638Z" fill="#5390F4"/>
<path d="M87.4567 10.9156V16.9597C86.8563 16.8394 86.256 16.7793 85.6556 16.7793C83.9446 16.7793 82.5638 17.2755 81.5132 18.2678C80.4626 19.23 79.9373 20.8238 79.9373 23.049V33.1977H73.9488V11.0058H79.7572V14.2985C80.8378 11.9831 82.939 10.8254 86.0609 10.8254C86.3911 10.8254 86.8563 10.8554 87.4567 10.9156Z" fill="#5390F4"/>
<path d="M97.6576 20.4329V33.1977H91.6691V11.0058H97.4775V13.7572C98.1079 12.6747 99.0084 11.8477 100.179 11.2764C101.35 10.7051 102.581 10.4194 103.871 10.4194C106.483 10.4194 108.464 11.2463 109.815 12.9002C111.196 14.524 111.886 16.6289 111.886 19.215V33.1977H105.897V20.2524C105.897 18.9293 105.552 17.8618 104.862 17.0499C104.201 16.238 103.181 15.8321 101.8 15.8321C100.539 15.8321 99.5337 16.2681 98.7833 17.1401C98.0329 18.0122 97.6576 19.1098 97.6576 20.4329Z" fill="#5390F4"/>
<path d="M116.613 27.1536C116.613 25.2592 117.228 23.7406 118.459 22.5979C119.69 21.4552 121.281 20.7336 123.232 20.4329L128.68 19.621C129.791 19.4706 130.346 18.9444 130.346 18.0423C130.346 17.2003 130.016 16.5087 129.355 15.9674C128.725 15.4261 127.81 15.1555 126.609 15.1555C125.348 15.1555 124.343 15.5013 123.592 16.1929C122.872 16.8845 122.466 17.7416 122.376 18.7639L117.063 17.6363C117.273 15.7118 118.219 14.0128 119.9 12.5394C121.581 11.0659 123.802 10.3292 126.564 10.3292C129.866 10.3292 132.297 11.1261 133.858 12.7198C135.419 14.2835 136.2 16.2982 136.2 18.7639V29.6795C136.2 31.0026 136.29 32.1754 136.47 33.1977H130.976C130.826 32.5362 130.751 31.6491 130.751 30.5365C129.34 32.7317 127.164 33.8292 124.222 33.8292C121.941 33.8292 120.095 33.1677 118.684 31.8446C117.303 30.5215 116.613 28.9578 116.613 27.1536ZM125.483 29.3638C126.894 29.3638 128.05 28.9729 128.95 28.191C129.881 27.3791 130.346 26.056 130.346 24.2217V23.2294L125.348 23.9962C123.517 24.2668 122.602 25.199 122.602 26.7927C122.602 27.5144 122.857 28.1309 123.367 28.6421C123.877 29.1232 124.583 29.3638 125.483 29.3638Z" fill="#5390F4"/>
<path d="M148.044 33.1977H142.236V0.541269H148.134V13.4415C148.675 12.5995 149.53 11.8929 150.701 11.3215C151.902 10.7201 153.282 10.4194 154.843 10.4194C157.995 10.4194 160.487 11.5019 162.318 13.667C164.149 15.8321 165.064 18.6136 165.064 22.0115C165.064 25.4095 164.104 28.2211 162.183 30.4463C160.261 32.6414 157.74 33.739 154.618 33.739C151.586 33.739 149.395 32.6565 148.044 30.4914V33.1977ZM157.5 26.7025C158.55 25.5599 159.076 24.0112 159.076 22.0567C159.076 20.1021 158.55 18.5685 157.5 17.4559C156.479 16.3433 155.173 15.787 153.582 15.787C151.992 15.787 150.671 16.3433 149.62 17.4559C148.57 18.5685 148.044 20.1021 148.044 22.0567C148.044 24.0112 148.57 25.5599 149.62 26.7025C150.701 27.8151 152.022 28.3714 153.582 28.3714C155.173 28.3714 156.479 27.8151 157.5 26.7025Z" fill="#5390F4"/>
<path d="M175.794 33.1977H169.806V11.0058H175.794V33.1977ZM169.085 3.74377C169.085 2.72137 169.445 1.84933 170.166 1.12764C170.886 0.375881 171.757 0 172.777 0C173.798 0 174.669 0.360846 175.389 1.08254C176.109 1.80423 176.47 2.6913 176.47 3.74377C176.47 4.73609 176.109 5.5931 175.389 6.31479C174.669 7.03648 173.798 7.39732 172.777 7.39732C171.757 7.39732 170.886 7.03648 170.166 6.31479C169.445 5.5931 169.085 4.73609 169.085 3.74377Z" fill="#5390F4"/>
<path d="M188.194 33.1977H182.206V0.541269H188.194V33.1977Z" fill="#5390F4"/>
<path d="M200.594 33.1977H194.605V11.0058H200.594V33.1977ZM193.885 3.74377C193.885 2.72137 194.245 1.84933 194.966 1.12764C195.686 0.375881 196.557 0 197.577 0C198.598 0 199.468 0.360846 200.189 1.08254C200.909 1.80423 201.269 2.6913 201.269 3.74377C201.269 4.73609 200.909 5.5931 200.189 6.31479C199.468 7.03648 198.598 7.39732 197.577 7.39732C196.557 7.39732 195.686 7.03648 194.966 6.31479C194.245 5.5931 193.885 4.73609 193.885 3.74377Z" fill="#5390F4"/>
<path d="M214.39 4.37525V11.0058H218.847V16.3282H214.39V25.62C214.39 26.5522 214.6 27.2137 215.02 27.6046C215.44 27.9956 216.101 28.191 217.001 28.191C217.812 28.191 218.427 28.1309 218.847 28.0106V32.9722C217.977 33.3331 216.851 33.5135 215.47 33.5135C213.309 33.5135 211.598 32.9121 210.337 31.7093C209.076 30.4764 208.446 28.7924 208.446 26.6574V16.3282H204.439V11.0058H205.564C206.675 11.0058 207.516 10.69 208.086 10.0586C208.686 9.39701 208.986 8.54 208.986 7.48753V4.37525H214.39Z" fill="#5390F4"/>
<path d="M232.072 41.9482H225.724L230.947 30.4012L221.536 11.0058H228.245L234.143 23.9962L239.592 11.0058H245.985L232.072 41.9482Z" fill="#5390F4"/>
<path d="M252.049 33.5682C250.208 36.3859 248.546 38.8962 247.063 41.0991C245.605 43.2765 244.314 45.1976 243.189 46.8626C242.064 48.502 241.105 49.9365 240.312 51.166C239.52 52.37 238.868 53.433 238.356 54.3552C237.87 55.2517 237.512 56.033 237.282 56.699C237.052 57.365 236.937 57.9798 236.937 58.5433C236.937 59.0556 237.078 59.5039 237.359 59.8881C237.64 60.2724 238.049 60.4645 238.586 60.4645C239.277 60.4645 239.954 60.2596 240.619 59.8497C241.31 59.4399 241.962 58.9147 242.575 58.2744C243.189 57.6084 243.752 56.8783 244.263 56.0842C244.8 55.2901 245.26 54.5089 245.644 53.7404C246.027 52.9463 246.321 52.2163 246.526 51.5503C246.756 50.8587 246.871 50.3207 246.871 49.9365C246.871 49.8084 246.846 49.706 246.794 49.6291C246.769 49.5267 246.731 49.4242 246.679 49.3217C246.628 49.1937 246.577 49.04 246.526 48.8607C246.5 48.6813 246.488 48.438 246.488 48.1306C246.488 47.6439 246.641 47.1956 246.948 46.7858C247.28 46.3759 247.702 46.171 248.214 46.171C248.648 46.171 249.006 46.2735 249.288 46.4784C249.569 46.6577 249.786 46.9011 249.94 47.2084C250.119 47.5158 250.234 47.8616 250.285 48.2459C250.362 48.6045 250.4 48.9631 250.4 49.3217C250.4 49.8853 250.323 50.5 250.17 51.166C250.477 51.4734 250.899 51.768 251.436 52.0498C251.972 52.3059 252.535 52.434 253.123 52.434C253.993 52.434 254.76 52.2291 255.425 51.8192C256.115 51.4094 256.716 50.8715 257.227 50.2055L257.496 50.436C256.984 51.1789 256.332 51.7808 255.54 52.2419C254.772 52.6774 253.967 52.8951 253.123 52.8951C252.509 52.8951 251.947 52.7798 251.436 52.5493C250.95 52.3187 250.489 52.0242 250.055 51.6656C249.671 52.9976 249.096 54.2271 248.329 55.3542C247.562 56.4813 246.654 57.4547 245.605 58.2744C244.583 59.0941 243.445 59.7473 242.192 60.2339C240.939 60.695 239.635 60.9256 238.279 60.9256C236.848 60.9256 235.774 60.5541 235.058 59.8113C234.367 59.0684 234.022 58.0694 234.022 56.8143C234.022 56.4044 234.099 55.9562 234.252 55.4695C234.38 54.9828 234.623 54.3808 234.981 53.6636C235.364 52.9463 235.876 52.0626 236.515 51.0124C237.154 49.9365 237.973 48.6173 238.97 47.0548C239.993 45.4922 241.22 43.6223 242.652 41.445C244.084 39.2676 245.772 36.7061 247.715 33.7603L252.049 33.5682Z" fill="#5390F4"/>
<path d="M246.121 63.3462C245.993 63.3206 245.763 63.3078 245.431 63.3078C244.331 63.3078 243.487 63.7049 242.899 64.4989C242.286 65.293 241.979 66.2664 241.979 67.4191C241.979 68.7767 242.401 69.8398 243.244 70.6082C244.063 71.3767 245.086 71.7609 246.313 71.7609C247.617 71.7609 248.844 71.4792 249.995 70.9156C251.146 70.3777 252.22 69.6477 253.217 68.7255C254.214 67.829 255.148 66.7915 256.017 65.6132C256.912 64.4605 257.73 63.2694 258.472 62.0398C259.239 60.8103 259.955 59.6064 260.62 58.4281C261.284 57.2497 261.898 56.1867 262.461 55.2389L262.384 55.1621C262 55.6232 261.515 56.1739 260.926 56.8143C260.364 57.429 259.725 58.031 259.009 58.6202C258.293 59.1837 257.538 59.6704 256.746 60.0803C255.953 60.4901 255.148 60.695 254.329 60.695C253.485 60.695 252.885 60.4517 252.527 59.965C252.143 59.4783 251.951 58.9019 251.951 58.2359C251.951 57.5955 252.13 56.8655 252.488 56.0458C252.846 55.2261 253.294 54.3296 253.831 53.3562C254.393 52.3572 255.02 51.3069 255.71 50.2055C256.4 49.104 257.091 47.9641 257.781 46.7858L261.847 46.6321C259.699 49.9877 258.024 52.6389 256.822 54.5857C255.621 56.5325 255.02 57.9157 255.02 58.7354C255.02 59.0428 255.109 59.299 255.288 59.5039C255.493 59.6832 255.736 59.7729 256.017 59.7729C256.477 59.7729 257.065 59.5423 257.781 59.0812C258.497 58.5946 259.252 57.9542 260.044 57.1601C260.863 56.366 261.681 55.4566 262.499 54.432C263.317 53.3818 264.059 52.3059 264.724 51.2045C265.286 50.2823 265.785 49.437 266.22 48.6685C266.654 47.9001 266.974 47.2725 267.178 46.7858L270.937 46.6321C269.557 49.0143 268.214 51.3966 266.91 53.7788C265.631 56.1355 264.289 58.4793 262.883 60.8103C264.11 60.4517 265.325 59.9009 266.526 59.1581C267.728 58.3896 268.879 57.5059 269.978 56.5069C271.104 55.5079 272.139 54.4448 273.085 53.3178C274.057 52.1907 274.926 51.0892 275.693 50.0133L276 50.2823C275.131 51.5375 274.172 52.767 273.124 53.9709C272.075 55.1493 270.963 56.2379 269.787 57.2369C268.636 58.2103 267.447 59.0556 266.22 59.7729C264.992 60.4901 263.765 61.0024 262.537 61.3098C261.617 62.8723 260.581 64.3196 259.431 65.6516C258.28 66.9836 257.014 68.1363 255.633 69.1097C254.253 70.0831 252.757 70.8388 251.146 71.3767C249.535 71.9402 247.809 72.222 245.968 72.222C245.047 72.222 244.152 72.1324 243.283 71.9531C242.413 71.7994 241.646 71.5176 240.981 71.1077C240.317 70.7235 239.78 70.1984 239.371 69.5324C238.961 68.892 238.757 68.0979 238.757 67.1501C238.757 66.3817 238.923 65.7285 239.255 65.1906C239.562 64.6526 239.984 64.2044 240.521 63.8457C241.033 63.5127 241.634 63.2566 242.324 63.0773C242.989 62.9236 243.679 62.8467 244.395 62.8467C244.702 62.8467 245.022 62.8595 245.354 62.8852C245.661 62.9108 245.917 62.9492 246.121 63.0004V63.3462Z" fill="#5390F4"/>
<path d="M110.977 62.909L107.688 57.9151C107.634 58.207 107.532 58.488 107.388 58.7467L107.371 58.7739L100.976 68.3679L110.936 83.7435C111.45 84.6739 112.037 84.9127 112.822 84.9298C112.829 84.9298 112.837 84.9298 112.844 84.9298H112.885L121.373 84.9927H121.456C121.722 84.9947 121.986 84.9439 122.232 84.8431C122.479 84.7422 122.703 84.5934 122.893 84.4051C123.083 84.2167 123.233 83.9926 123.337 83.7454C123.441 83.4983 123.495 83.233 123.497 82.9647L123.505 81.8944L110.977 62.9039V62.909Z" fill="#5390F4"/>
<path d="M123.777 44.4932C123.78 43.9514 123.571 43.4302 123.193 43.0443C122.816 42.6584 122.303 42.4393 121.765 42.4352L113.153 42.3717C112.618 42.3737 112.104 42.5871 111.723 42.9661C111.341 43.3452 111.122 43.8597 111.112 44.3997L110.989 61.3867L123.516 80.3771L123.777 44.4932Z" fill="#5390F4"/>
<path d="M89.9668 44.2436C89.9707 43.7018 89.761 43.1806 89.3837 42.7947C89.0065 42.4087 88.4927 42.1897 87.9553 42.1857L79.3435 42.1221C79.0775 42.1202 78.8136 42.1711 78.567 42.2719C78.3205 42.3728 78.096 42.5217 77.9065 42.71C77.717 42.8983 77.5661 43.1224 77.4625 43.3695C77.3589 43.6166 77.3046 43.8819 77.3027 44.1501L77.0405 80.215L89.8417 61.4683L89.9668 44.2436Z" fill="#5390F4"/>
<path d="M106.579 56.2027C106.488 56.0437 106.384 55.8928 106.268 55.7515C106.068 55.5386 105.827 55.3692 105.56 55.2535C105.293 55.1379 105.005 55.0785 104.714 55.079L96.4544 55.0204C96.0554 55.0262 95.6647 55.1359 95.3203 55.339C94.9758 55.5422 94.6894 55.8317 94.4889 56.1795L90.034 62.6872L77.0303 81.7322L77.024 82.6249C77.0212 82.8939 77.084 83.1595 77.2068 83.3983C77.3687 83.7902 77.6452 84.123 77.9996 84.3524C78.3539 84.5818 78.7691 84.6968 79.1899 84.6822L87.6229 84.7444H87.6472H87.6569H87.8474C88.2468 84.7407 88.6383 84.6318 88.983 84.4285C89.3278 84.2251 89.6139 83.9345 89.8129 83.5853L100.474 67.591L106.661 58.3101C106.827 57.9812 106.907 57.6146 106.893 57.2456C106.878 56.8766 106.77 56.5175 106.579 56.2027Z" fill="#5390F4"/>
<path d="M141.24 56.068L141.138 70.1087L153.901 56.5909L153.904 56.2059" fill="#61C9F8"/>
<path d="M141.04 83.6645C141.034 84.4796 141.936 85.1471 143.055 85.1551L151.667 85.2187C152.786 85.2271 153.698 84.5731 153.704 83.758L153.893 57.705L141.13 71.2228L141.04 83.6645Z" fill="#61C9F8"/>
<path d="M167.395 55.5407C168.204 55.5468 168.866 54.6372 168.874 53.5087L168.937 44.8264C168.945 43.6982 168.297 42.7786 167.488 42.7728L141.647 42.5822L155.055 55.4499L167.395 55.5407Z" fill="#61C9F8"/>
<path d="M127.851 42.4806C127.043 42.4745 126.381 43.3844 126.373 44.5126L126.31 53.1949C126.302 54.3231 126.95 55.2428 127.758 55.2488L153.6 55.4395L140.192 42.5717L127.851 42.4806Z" fill="#61C9F8"/>
<path d="M184.86 64.9094L188.15 69.9023C188.204 69.6104 188.306 69.3294 188.45 69.0707L188.467 69.0438L194.862 59.4495L184.902 44.0743C184.387 43.1435 183.801 42.9051 183.016 42.8876C183.009 42.8876 183.001 42.8876 182.994 42.8876H182.953L174.465 42.825H174.382C174.116 42.8231 173.852 42.874 173.605 42.9749C173.359 43.0757 173.134 43.2246 172.945 43.4129C172.755 43.6012 172.604 43.8253 172.501 44.0724C172.397 44.3195 172.343 44.5848 172.341 44.853L172.333 45.9234L184.86 64.9138V64.9094Z" fill="#00B692"/>
<path d="M172.063 83.3261C172.059 83.8679 172.268 84.3891 172.646 84.7751C173.023 85.161 173.537 85.38 174.074 85.384L182.686 85.4476C183.221 85.4456 183.735 85.2322 184.117 84.8531C184.498 84.4741 184.717 83.9595 184.727 83.4196L184.85 66.4326L172.323 47.4421L172.063 83.3261Z" fill="#00B692"/>
<path d="M205.873 83.5757C205.871 83.844 205.921 84.1101 206.021 84.3587C206.121 84.6073 206.269 84.8336 206.456 85.0247C206.642 85.2158 206.865 85.368 207.11 85.4724C207.355 85.5769 207.618 85.6317 207.884 85.6336L216.496 85.6972C216.762 85.6991 217.026 85.6482 217.272 85.5473C217.519 85.4465 217.743 85.2976 217.933 85.1093C218.122 84.921 218.273 84.6969 218.377 84.4498C218.48 84.2027 218.535 83.9374 218.537 83.6692L218.799 47.6043L205.998 66.3513L205.873 83.5757Z" fill="#00B692"/>
<path d="M189.26 71.6168C189.351 71.7757 189.455 71.9265 189.571 72.0677C189.771 72.2805 190.012 72.45 190.279 72.5656C190.546 72.6813 190.834 72.7407 191.124 72.7402L199.384 72.799C199.783 72.7933 200.174 72.6834 200.518 72.4803C200.863 72.2771 201.149 71.9875 201.35 71.6396L205.806 65.1316L218.81 46.087L218.817 45.1946C218.82 44.9256 218.757 44.66 218.634 44.4212C218.472 44.0292 218.195 43.6964 217.841 43.4669C217.487 43.2375 217.072 43.1224 216.651 43.137L208.218 43.0748H208.193H208.184H207.993C207.594 43.0785 207.202 43.1875 206.858 43.3909C206.513 43.5943 206.227 43.885 206.028 44.2342L195.366 60.2255L189.18 69.5064C189.012 69.8355 188.932 70.2026 188.946 70.5722C188.96 70.9418 189.068 71.3015 189.26 71.6168Z" fill="#00B692"/>
</svg>
