<svg width="688" height="247" viewBox="0 0 688 247" fill="none" xmlns="http://www.w3.org/2000/svg">
<path d="M50.9568 82.7538H0V3.03581H15.4891V67.9121H50.9568V82.7538Z" fill="#5390F4"/>
<path d="M72.6804 48.7978H97.3732C97.2235 45.7245 96.1011 43.1384 94.006 41.0396C91.9857 38.9408 88.9926 37.8913 85.0268 37.8913C81.4351 37.8913 78.5169 39.0157 76.2721 41.2645C74.0273 43.5132 72.8301 46.0243 72.6804 48.7978ZM98.8323 63.1897L111.291 66.9002C109.794 71.9973 106.839 76.195 102.424 79.4931C98.084 82.7913 92.6591 84.4404 86.1492 84.4404C78.2176 84.4404 71.4832 81.7794 65.9461 76.4573C60.4089 71.0603 57.6403 63.8644 57.6403 54.8694C57.6403 46.3241 60.3341 39.353 65.7216 33.9561C71.1091 28.4841 77.4693 25.7481 84.8023 25.7481C93.3325 25.7481 99.9921 28.2967 104.781 33.3939C109.645 38.491 112.077 45.4996 112.077 54.4196C112.077 55.0193 112.039 55.6939 111.964 56.4435C111.964 57.1931 111.964 57.7927 111.964 58.2425L111.852 59.0296H72.3437C72.4934 62.6275 73.9151 65.6259 76.6088 68.0245C79.3026 70.4232 82.5201 71.6225 86.2614 71.6225C92.6217 71.6225 96.812 68.8116 98.8323 63.1897Z" fill="#5390F4"/>
<path d="M120.465 67.6872C120.465 62.9649 121.999 59.1795 125.067 56.3311C128.134 53.4827 132.1 51.6837 136.964 50.9341L150.545 48.9102C153.314 48.5354 154.698 47.2236 154.698 44.9749C154.698 42.8761 153.875 41.152 152.229 39.8028C150.657 38.4535 148.375 37.7789 145.382 37.7789C142.239 37.7789 139.733 38.6409 137.862 40.365C136.066 42.089 135.056 44.2253 134.831 46.7739L121.587 43.963C122.111 39.1656 124.468 34.9305 128.658 31.2576C132.848 27.5846 138.386 25.7481 145.27 25.7481C153.501 25.7481 159.562 27.7345 163.453 31.7073C167.343 35.6051 169.289 40.6273 169.289 46.7739V73.9837C169.289 77.2819 169.513 80.2052 169.962 82.7538H156.269C155.895 81.1047 155.708 78.8935 155.708 76.12C152.191 81.592 146.766 84.3279 139.433 84.3279C133.746 84.3279 129.145 82.6789 125.628 79.3807C122.186 76.0825 120.465 72.1847 120.465 67.6872ZM142.576 73.1966C146.093 73.1966 148.974 72.2222 151.218 70.2733C153.538 68.2494 154.698 64.9512 154.698 60.3788V57.9052L142.239 59.8166C137.675 60.4912 135.393 62.8149 135.393 66.7877C135.393 68.5867 136.029 70.1234 137.301 71.3977C138.573 72.597 140.331 73.1966 142.576 73.1966Z" fill="#5390F4"/>
<path d="M218.008 27.2098V42.2764C216.511 41.9766 215.015 41.8267 213.518 41.8267C209.253 41.8267 205.811 43.0635 203.192 45.5371C200.573 47.9357 199.264 51.9085 199.264 57.4554V82.7538H184.336V27.4347H198.815V35.6426C201.509 29.8708 206.747 26.9849 214.529 26.9849C215.352 26.9849 216.511 27.0599 218.008 27.2098Z" fill="#5390F4"/>
<path d="M243.436 50.9341V82.7538H228.509V27.4347H242.987V34.2934C244.559 31.5949 246.804 29.5335 249.722 28.1093C252.64 26.6851 255.708 25.973 258.926 25.973C265.435 25.973 270.374 28.0344 273.741 32.1571C277.183 36.2048 278.904 41.4519 278.904 47.8983V82.7538H263.976V50.4843C263.976 47.1862 263.116 44.5251 261.395 42.5013C259.749 40.4774 257.204 39.4655 253.762 39.4655C250.62 39.4655 248.113 40.5524 246.242 42.7262C244.372 44.8999 243.436 47.6359 243.436 50.9341Z" fill="#5390F4"/>
<path d="M290.688 67.6872C290.688 62.9649 292.221 59.1795 295.289 56.3311C298.357 53.4827 302.323 51.6837 307.187 50.9341L320.768 48.9102C323.536 48.5354 324.921 47.2236 324.921 44.9749C324.921 42.8761 324.098 41.152 322.451 39.8028C320.88 38.4535 318.598 37.7789 315.605 37.7789C312.462 37.7789 309.955 38.6409 308.085 40.365C306.289 42.089 305.279 44.2253 305.054 46.7739L291.81 43.963C292.334 39.1656 294.691 34.9305 298.881 31.2576C303.071 27.5846 308.608 25.7481 315.493 25.7481C323.723 25.7481 329.784 27.7345 333.675 31.7073C337.566 35.6051 339.512 40.6273 339.512 46.7739V73.9837C339.512 77.2819 339.736 80.2052 340.185 82.7538H326.492C326.118 81.1047 325.931 78.8935 325.931 76.12C322.414 81.592 316.989 84.3279 309.656 84.3279C303.969 84.3279 299.367 82.6789 295.851 79.3807C292.409 76.0825 290.688 72.1847 290.688 67.6872ZM312.799 73.1966C316.316 73.1966 319.196 72.2222 321.441 70.2733C323.761 68.2494 324.921 64.9512 324.921 60.3788V57.9052L312.462 59.8166C307.898 60.4912 305.615 62.8149 305.615 66.7877C305.615 68.5867 306.251 70.1234 307.524 71.3977C308.796 72.597 310.554 73.1966 312.799 73.1966Z" fill="#5390F4"/>
<path d="M369.038 82.7538H354.559V1.34925H369.262V33.5063C370.609 31.4075 372.742 29.646 375.66 28.2218C378.653 26.7226 382.095 25.973 385.986 25.973C393.843 25.973 400.053 28.6715 404.618 34.0685C409.182 39.4655 411.464 46.3991 411.464 54.8694C411.464 63.3396 409.07 70.3482 404.281 75.8951C399.492 81.3671 393.207 84.1031 385.425 84.1031C377.867 84.1031 372.405 81.4046 369.038 76.0076V82.7538ZM392.608 66.5628C395.227 63.7144 396.537 59.8541 396.537 54.9818C396.537 50.1095 395.227 46.2867 392.608 43.5132C390.064 40.7398 386.809 39.353 382.843 39.353C378.878 39.353 375.585 40.7398 372.966 43.5132C370.347 46.2867 369.038 50.1095 369.038 54.9818C369.038 59.8541 370.347 63.7144 372.966 66.5628C375.66 69.3363 378.952 70.723 382.843 70.723C386.809 70.723 390.064 69.3363 392.608 66.5628Z" fill="#5390F4"/>
<path d="M438.212 82.7538H423.284V27.4347H438.212V82.7538ZM421.488 9.33229C421.488 6.78372 422.386 4.60993 424.182 2.81093C425.978 0.936978 428.148 0 430.692 0C433.236 0 435.406 0.8995 437.202 2.6985C438.997 4.49749 439.895 6.70876 439.895 9.33229C439.895 11.8059 438.997 13.9422 437.202 15.7412C435.406 17.5402 433.236 18.4397 430.692 18.4397C428.148 18.4397 425.978 17.5402 424.182 15.7412C422.386 13.9422 421.488 11.8059 421.488 9.33229Z" fill="#5390F4"/>
<path d="M469.121 82.7538H454.194V1.34925H469.121V82.7538Z" fill="#5390F4"/>
<path d="M500.031 82.7538H485.103V27.4347H500.031V82.7538ZM483.307 9.33229C483.307 6.78372 484.205 4.60993 486.001 2.81093C487.797 0.936978 489.967 0 492.511 0C495.055 0 497.225 0.8995 499.021 2.6985C500.817 4.49749 501.715 6.70876 501.715 9.33229C501.715 11.8059 500.817 13.9422 499.021 15.7412C497.225 17.5402 495.055 18.4397 492.511 18.4397C489.967 18.4397 487.797 17.5402 486.001 15.7412C484.205 13.9422 483.307 11.8059 483.307 9.33229Z" fill="#5390F4"/>
<path d="M534.42 10.9064V27.4347H545.532V40.7023H534.42V63.8644C534.42 66.1881 534.944 67.8371 535.992 68.8116C537.039 69.786 538.685 70.2733 540.93 70.2733C542.951 70.2733 544.484 70.1234 545.532 69.8235V82.1916C543.362 83.0911 540.556 83.5409 537.114 83.5409C531.727 83.5409 527.461 82.0417 524.319 79.0434C521.176 75.9701 519.605 71.7724 519.605 66.4504V40.7023H509.615V27.4347H512.421C515.19 27.4347 517.285 26.6476 518.707 25.0735C520.203 23.4244 520.952 21.2881 520.952 18.6646V10.9064H534.42Z" fill="#5390F4"/>
<path d="M578.499 104.567H562.673L575.693 75.7827L552.235 27.4347H568.959L583.662 59.8166L597.243 27.4347H613.181L578.499 104.567Z" fill="#5390F4"/>
<path d="M628.296 83.6772C623.706 90.7011 619.563 96.9587 615.866 102.45C612.233 107.878 609.014 112.667 606.209 116.817C603.405 120.904 601.015 124.479 599.039 127.544C597.063 130.546 595.437 133.195 594.162 135.494C592.951 137.729 592.059 139.677 591.485 141.337C590.912 142.997 590.625 144.529 590.625 145.934C590.625 147.211 590.975 148.329 591.676 149.286C592.378 150.244 593.397 150.723 594.736 150.723C596.457 150.723 598.146 150.212 599.803 149.191C601.524 148.169 603.15 146.86 604.68 145.264C606.209 143.603 607.612 141.784 608.887 139.804C610.225 137.825 611.372 135.877 612.329 133.962C613.285 131.982 614.018 130.162 614.528 128.502C615.101 126.778 615.388 125.437 615.388 124.479C615.388 124.16 615.324 123.905 615.197 123.713C615.133 123.458 615.038 123.202 614.91 122.947C614.783 122.628 614.655 122.245 614.528 121.798C614.464 121.351 614.432 120.744 614.432 119.978C614.432 118.765 614.814 117.647 615.579 116.626C616.408 115.604 617.46 115.093 618.735 115.093C619.818 115.093 620.711 115.348 621.412 115.859C622.113 116.306 622.655 116.913 623.037 117.679C623.483 118.445 623.77 119.307 623.898 120.265C624.089 121.159 624.184 122.053 624.184 122.947C624.184 124.352 623.993 125.884 623.611 127.544C624.376 128.311 625.427 129.045 626.766 129.747C628.105 130.386 629.507 130.705 630.973 130.705C633.14 130.705 635.052 130.194 636.71 129.173C638.431 128.151 639.928 126.81 641.203 125.15L641.873 125.725C640.598 127.576 638.972 129.077 636.996 130.226C635.084 131.312 633.076 131.855 630.973 131.855C629.443 131.855 628.041 131.567 626.766 130.992C625.555 130.418 624.408 129.683 623.324 128.79C622.368 132.11 620.934 135.175 619.021 137.984C617.109 140.794 614.846 143.22 612.233 145.264C609.683 147.307 606.847 148.935 603.724 150.148C600.6 151.298 597.349 151.872 593.971 151.872C590.402 151.872 587.725 150.947 585.94 149.095C584.219 147.243 583.358 144.753 583.358 141.624C583.358 140.602 583.549 139.485 583.932 138.272C584.251 137.059 584.856 135.558 585.749 133.77C586.705 131.982 587.98 129.779 589.573 127.161C591.167 124.479 593.206 121.191 595.692 117.296C598.242 113.401 601.301 108.74 604.871 103.312C608.44 97.8846 612.647 91.4993 617.492 84.1561L628.296 83.6772Z" fill="#5390F4"/>
<path d="M613.519 157.907C613.2 157.843 612.626 157.811 611.797 157.811C609.057 157.811 606.953 158.801 605.487 160.78C603.957 162.759 603.192 165.186 603.192 168.059C603.192 171.443 604.244 174.093 606.348 176.009C608.387 177.925 610.937 178.882 613.997 178.882C617.247 178.882 620.307 178.18 623.175 176.775C626.044 175.434 628.721 173.615 631.207 171.316C633.693 169.081 636.019 166.495 638.186 163.558C640.417 160.684 642.457 157.715 644.305 154.65C646.218 151.585 648.002 148.584 649.66 145.647C651.317 142.71 652.847 140.06 654.249 137.697L654.058 137.506C653.102 138.655 651.891 140.028 650.425 141.624C649.022 143.157 647.429 144.657 645.644 146.126C643.859 147.53 641.979 148.744 640.003 149.765C638.027 150.787 636.019 151.298 633.979 151.298C631.876 151.298 630.378 150.691 629.486 149.478C628.53 148.265 628.051 146.828 628.051 145.168C628.051 143.572 628.498 141.752 629.39 139.708C630.282 137.665 631.398 135.43 632.736 133.004C634.139 130.514 635.7 127.896 637.421 125.15C639.142 122.404 640.863 119.563 642.584 116.626L652.719 116.242C647.365 124.607 643.19 131.216 640.194 136.069C637.198 140.922 635.7 144.37 635.7 146.413C635.7 147.179 635.923 147.818 636.37 148.329C636.88 148.776 637.485 148.999 638.186 148.999C639.334 148.999 640.8 148.424 642.584 147.275C644.369 146.062 646.25 144.466 648.226 142.486C650.265 140.507 652.305 138.24 654.345 135.686C656.384 133.068 658.233 130.386 659.89 127.64C661.292 125.341 662.535 123.234 663.619 121.319C664.703 119.403 665.499 117.839 666.009 116.626L675.379 116.242C671.937 122.181 668.591 128.119 665.34 134.057C662.153 139.932 658.807 145.775 655.301 151.585C658.36 150.691 661.388 149.318 664.384 147.467C667.38 145.551 670.248 143.348 672.989 140.858C675.794 138.368 678.375 135.718 680.733 132.908C683.156 130.099 685.323 127.353 687.235 124.671L688 125.341C685.833 128.47 683.442 131.535 680.829 134.536C678.216 137.474 675.443 140.187 672.511 142.678C669.643 145.104 666.679 147.211 663.619 148.999C660.559 150.787 657.5 152.064 654.44 152.83C652.146 156.725 649.564 160.333 646.696 163.653C643.827 166.974 640.672 169.847 637.23 172.274C633.788 174.7 630.059 176.584 626.044 177.925C622.028 179.329 617.725 180.032 613.136 180.032C610.841 180.032 608.61 179.808 606.443 179.361C604.276 178.978 602.364 178.276 600.707 177.254C599.049 176.296 597.711 174.987 596.691 173.327C595.671 171.731 595.161 169.751 595.161 167.389C595.161 165.473 595.575 163.845 596.404 162.504C597.169 161.163 598.221 160.046 599.559 159.152C600.834 158.322 602.332 157.683 604.053 157.236C605.71 156.853 607.431 156.661 609.216 156.661C609.981 156.661 610.778 156.693 611.606 156.757C612.371 156.821 613.009 156.917 613.519 157.045V157.907Z" fill="#5390F4"/>
<path d="M276.639 156.817L268.439 144.368C268.304 145.096 268.051 145.796 267.691 146.441L267.649 146.509L251.707 170.424L276.536 208.752C277.818 211.071 279.28 211.666 281.236 211.709C281.255 211.709 281.274 211.709 281.292 211.709H281.393L302.554 211.866H302.759C303.422 211.871 304.08 211.744 304.695 211.493C305.31 211.241 305.869 210.87 306.342 210.401C306.814 209.932 307.191 209.373 307.449 208.757C307.707 208.141 307.842 207.479 307.847 206.81L307.867 204.142L276.639 156.804V156.817Z" fill="#5390F4"/>
<path d="M308.544 110.91C308.553 109.56 308.031 108.261 307.09 107.299C306.15 106.337 304.869 105.791 303.53 105.78L282.063 105.622C280.728 105.627 279.447 106.159 278.496 107.104C277.545 108.049 276.999 109.331 276.975 110.677L276.667 153.022L307.895 200.36L308.544 110.91Z" fill="#5390F4"/>
<path d="M224.266 110.288C224.276 108.938 223.753 107.639 222.813 106.677C221.872 105.715 220.592 105.169 219.252 105.159L197.785 105C197.122 104.995 196.464 105.122 195.849 105.374C195.235 105.625 194.675 105.996 194.203 106.465C193.73 106.935 193.354 107.494 193.096 108.11C192.838 108.726 192.702 109.387 192.698 110.055L192.044 199.956L223.954 153.225L224.266 110.288Z" fill="#5390F4"/>
<path d="M265.675 140.1C265.449 139.703 265.189 139.327 264.9 138.975C264.402 138.444 263.801 138.022 263.135 137.733C262.469 137.445 261.752 137.297 261.027 137.298L240.437 137.152C239.443 137.167 238.469 137.44 237.61 137.947C236.752 138.453 236.038 139.175 235.538 140.042L224.433 156.264L192.018 203.738L192.002 205.964C191.995 206.634 192.152 207.296 192.458 207.891C192.861 208.868 193.551 209.698 194.434 210.27C195.317 210.842 196.352 211.128 197.401 211.092L218.423 211.247H218.483H218.507H218.982C219.978 211.238 220.954 210.966 221.813 210.459C222.673 209.953 223.386 209.228 223.882 208.358L250.458 168.488L265.879 145.353C266.295 144.533 266.494 143.619 266.458 142.699C266.422 141.779 266.152 140.884 265.675 140.1Z" fill="#5390F4"/>
<path d="M352.076 139.764L351.822 174.764L383.637 141.067L383.644 140.107" fill="#61C9F8"/>
<path d="M351.577 208.555C351.562 210.587 353.812 212.251 356.601 212.271L378.068 212.429C380.858 212.45 383.131 210.82 383.146 208.788L383.617 143.844L351.802 177.541L351.577 208.555Z" fill="#61C9F8"/>
<path d="M417.275 138.449C419.29 138.464 420.941 136.197 420.961 133.384L421.118 111.741C421.139 108.929 419.521 106.636 417.506 106.622L353.09 106.147L386.513 138.223L417.275 138.449Z" fill="#61C9F8"/>
<path d="M318.703 105.893C316.687 105.878 315.038 108.147 315.017 110.959L314.86 132.602C314.84 135.414 316.457 137.707 318.471 137.722L382.887 138.197L349.465 106.121L318.703 105.893Z" fill="#61C9F8"/>
<path d="M460.812 161.803L469.012 174.249C469.147 173.521 469.4 172.821 469.76 172.176L469.802 172.109L485.744 148.193L460.915 109.866C459.633 107.546 458.171 106.952 456.215 106.908C456.196 106.908 456.178 106.908 456.159 106.908H456.058L434.898 106.752H434.691C434.028 106.747 433.37 106.874 432.756 107.126C432.141 107.377 431.582 107.748 431.109 108.218C430.637 108.687 430.261 109.246 430.003 109.862C429.744 110.478 429.609 111.139 429.604 111.807L429.584 114.476L460.812 161.814V161.803Z" fill="#00B692"/>
<path d="M428.911 207.711C428.901 209.062 429.424 210.361 430.364 211.323C431.304 212.285 432.585 212.831 433.925 212.841L455.392 213C456.727 212.995 458.007 212.463 458.958 211.518C459.909 210.573 460.455 209.29 460.48 207.944L460.788 165.6L429.56 118.262L428.911 207.711Z" fill="#00B692"/>
<path d="M513.19 208.334C513.185 209.002 513.311 209.666 513.561 210.285C513.81 210.905 514.178 211.469 514.644 211.946C515.109 212.422 515.663 212.801 516.274 213.062C516.885 213.322 517.541 213.459 518.205 213.463L539.672 213.622C540.335 213.627 540.993 213.5 541.607 213.248C542.222 212.997 542.781 212.626 543.254 212.157C543.726 211.687 544.102 211.128 544.36 210.512C544.619 209.897 544.754 209.235 544.759 208.567L545.412 118.666L513.502 165.397L513.19 208.334Z" fill="#00B692"/>
<path d="M471.78 178.523C472.006 178.919 472.265 179.295 472.555 179.647C473.053 180.178 473.653 180.6 474.319 180.888C474.985 181.176 475.703 181.325 476.427 181.323L497.017 181.47C498.012 181.456 498.986 181.182 499.844 180.675C500.703 180.169 501.417 179.447 501.917 178.58L513.024 162.357L545.442 114.884L545.457 112.659C545.464 111.988 545.308 111.326 545.002 110.731C544.598 109.754 543.909 108.924 543.026 108.352C542.142 107.78 541.107 107.493 540.058 107.53L519.037 107.375H518.976H518.952H518.477C517.482 107.384 516.506 107.656 515.646 108.163C514.787 108.67 514.074 109.394 513.578 110.265L487.001 150.127L471.579 173.262C471.162 174.083 470.962 174.998 470.997 175.919C471.032 176.84 471.302 177.737 471.78 178.523Z" fill="#00B692"/>
</svg>
