<svg width="248" height="88" viewBox="0 0 248 88" fill="none" xmlns="http://www.w3.org/2000/svg">
<path d="M18.2929 29.1216H0V1.06832H5.56041V23.8987H18.2929V29.1216Z" fill="#F5F1D5"/>
<path d="M26.0915 17.1722H34.9559C34.9022 16.0907 34.4993 15.1807 33.7471 14.4421C33.0219 13.7035 31.9474 13.3342 30.5237 13.3342C29.2343 13.3342 28.1867 13.7299 27.3809 14.5212C26.575 15.3126 26.1452 16.1962 26.0915 17.1722ZM35.4797 22.2368L39.9522 23.5426C39.415 25.3363 38.354 26.8135 36.7691 27.9741C35.2111 29.1347 33.2636 29.7151 30.9266 29.7151C28.0793 29.7151 25.6617 28.7786 23.6739 26.9058C21.6861 25.0066 20.6923 22.4742 20.6923 19.3089C20.6923 16.3017 21.6593 13.8486 23.5933 11.9493C25.5274 10.0237 27.8107 9.06092 30.4431 9.06092C33.5054 9.06092 35.8961 9.95778 37.6152 11.7515C39.3613 13.5452 40.2343 16.0116 40.2343 19.1506C40.2343 19.3616 40.2209 19.599 40.194 19.8628C40.194 20.1266 40.194 20.3376 40.194 20.4959L40.1537 20.7729H25.9706C26.0243 22.039 26.5347 23.0941 27.5017 23.9382C28.4688 24.7823 29.6238 25.2044 30.9669 25.2044C33.2502 25.2044 34.7545 24.2152 35.4797 22.2368Z" fill="#F5F1D5"/>
<path d="M43.2455 23.8195C43.2455 22.1577 43.7962 20.8256 44.8975 19.8232C45.9989 18.8209 47.4226 18.1878 49.1686 17.924L54.044 17.2118C55.0379 17.0799 55.5349 16.6183 55.5349 15.8269C55.5349 15.0883 55.2394 14.4816 54.6484 14.0068C54.0843 13.532 53.265 13.2946 52.1906 13.2946C51.0624 13.2946 50.1625 13.598 49.4909 14.2047C48.8462 14.8114 48.4836 15.5632 48.403 16.46L43.6485 15.4708C43.8365 13.7826 44.6827 12.2923 46.1869 10.9997C47.6912 9.70719 49.679 9.06092 52.1503 9.06092C55.1051 9.06092 57.2809 9.75994 58.6777 11.158C60.0745 12.5297 60.7729 14.297 60.7729 16.46V26.0353C60.7729 27.1959 60.8535 28.2247 61.0147 29.1216H56.099C55.9646 28.5412 55.8975 27.7631 55.8975 26.7871C54.635 28.7127 52.6875 29.6755 50.055 29.6755C48.0135 29.6755 46.3615 29.0952 45.099 27.9345C43.8634 26.7739 43.2455 25.4022 43.2455 23.8195ZM51.1832 25.7583C52.4457 25.7583 53.4799 25.4154 54.2858 24.7296C55.1185 24.0174 55.5349 22.8567 55.5349 21.2477V20.3772L51.0624 21.0498C49.4238 21.2872 48.6045 22.105 48.6045 23.503C48.6045 24.1361 48.8328 24.6768 49.2895 25.1253C49.7461 25.5473 50.3774 25.7583 51.1832 25.7583Z" fill="#F5F1D5"/>
<path d="M78.2625 9.5753V14.8773C77.7253 14.7718 77.1881 14.719 76.6508 14.719C75.1197 14.719 73.884 15.1543 72.9439 16.0248C72.0037 16.8689 71.5336 18.2669 71.5336 20.2189V29.1216H66.1747V9.65443H71.3725V12.5428C72.3395 10.5117 74.2198 9.49616 77.0135 9.49616C77.3089 9.49616 77.7253 9.52254 78.2625 9.5753Z" fill="#F5F1D5"/>
<path d="M87.3911 17.924V29.1216H82.0321V9.65443H87.2299V12.068C87.794 11.1184 88.5998 10.393 89.6475 9.89184C90.6951 9.39065 91.7964 9.14006 92.9515 9.14006C95.2885 9.14006 97.0613 9.86546 98.2701 11.3163C99.5058 12.7407 100.124 14.5872 100.124 16.8557V29.1216H94.7646V17.7657C94.7646 16.6051 94.4557 15.6687 93.8379 14.9565C93.2469 14.2442 92.3336 13.8881 91.098 13.8881C89.9698 13.8881 89.0699 14.2706 88.3984 15.0356C87.7268 15.8006 87.3911 16.7634 87.3911 17.924Z" fill="#F5F1D5"/>
<path d="M104.354 23.8195C104.354 22.1577 104.904 20.8256 106.006 19.8232C107.107 18.8209 108.531 18.1878 110.277 17.924L115.152 17.2118C116.146 17.0799 116.643 16.6183 116.643 15.8269C116.643 15.0883 116.348 14.4816 115.757 14.0068C115.192 13.532 114.373 13.2946 113.299 13.2946C112.171 13.2946 111.271 13.598 110.599 14.2047C109.954 14.8114 109.592 15.5632 109.511 16.46L104.757 15.4708C104.945 13.7826 105.791 12.2923 107.295 10.9997C108.799 9.70719 110.787 9.06092 113.258 9.06092C116.213 9.06092 118.389 9.75994 119.786 11.158C121.183 12.5297 121.881 14.297 121.881 16.46V26.0353C121.881 27.1959 121.962 28.2247 122.123 29.1216H117.207C117.073 28.5412 117.006 27.7631 117.006 26.7871C115.743 28.7127 113.796 29.6755 111.163 29.6755C109.122 29.6755 107.47 29.0952 106.207 27.9345C104.972 26.7739 104.354 25.4022 104.354 23.8195ZM112.291 25.7583C113.554 25.7583 114.588 25.4154 115.394 24.7296C116.227 24.0174 116.643 22.8567 116.643 21.2477V20.3772L112.171 21.0498C110.532 21.2872 109.713 22.105 109.713 23.503C109.713 24.1361 109.941 24.6768 110.398 25.1253C110.854 25.5473 111.486 25.7583 112.291 25.7583Z" fill="#F5F1D5"/>
<path d="M132.481 29.1216H127.283V0.474809H132.561V11.7911C133.045 11.0525 133.81 10.4326 134.858 9.9314C135.932 9.40384 137.168 9.14006 138.565 9.14006C141.385 9.14006 143.615 10.0897 145.253 11.9889C146.892 13.8881 147.711 16.3281 147.711 19.3089C147.711 22.2896 146.852 24.756 145.133 26.708C143.413 28.6336 141.157 29.5964 138.363 29.5964C135.65 29.5964 133.689 28.6468 132.481 26.7475V29.1216ZM140.942 23.4239C141.882 22.4215 142.352 21.063 142.352 19.3484C142.352 17.6338 141.882 16.2886 140.942 15.3126C140.029 14.3366 138.86 13.8486 137.437 13.8486C136.013 13.8486 134.831 14.3366 133.891 15.3126C132.951 16.2886 132.481 17.6338 132.481 19.3484C132.481 21.063 132.951 22.4215 133.891 23.4239C134.858 24.3999 136.04 24.8879 137.437 24.8879C138.86 24.8879 140.029 24.3999 140.942 23.4239Z" fill="#F5F1D5"/>
<path d="M157.313 29.1216H151.954V9.65443H157.313V29.1216ZM151.31 3.28409C151.31 2.38723 151.632 1.62226 152.277 0.989185C152.921 0.329728 153.7 0 154.614 0C155.527 0 156.306 0.316539 156.951 0.949618C157.595 1.5827 157.918 2.36085 157.918 3.28409C157.918 4.15457 157.595 4.90635 156.951 5.53943C156.306 6.17251 155.527 6.48904 154.614 6.48904C153.7 6.48904 152.921 6.17251 152.277 5.53943C151.632 4.90635 151.31 4.15457 151.31 3.28409Z" fill="#F5F1D5"/>
<path d="M168.41 29.1216H163.051V0.474809H168.41V29.1216Z" fill="#F5F1D5"/>
<path d="M179.506 29.1216H174.147V9.65443H179.506V29.1216ZM173.502 3.28409C173.502 2.38723 173.825 1.62226 174.469 0.989185C175.114 0.329728 175.893 0 176.806 0C177.72 0 178.499 0.316539 179.143 0.949618C179.788 1.5827 180.11 2.36085 180.11 3.28409C180.11 4.15457 179.788 4.90635 179.143 5.53943C178.499 6.17251 177.72 6.48904 176.806 6.48904C175.893 6.48904 175.114 6.17251 174.469 5.53943C173.825 4.90635 173.502 4.15457 173.502 3.28409Z" fill="#F5F1D5"/>
<path d="M191.851 3.83803V9.65443H195.84V14.3234H191.851V22.4742C191.851 23.292 192.039 23.8723 192.415 24.2152C192.791 24.5581 193.382 24.7296 194.188 24.7296C194.913 24.7296 195.464 24.6768 195.84 24.5713V28.9237C195.061 29.2403 194.054 29.3985 192.818 29.3985C190.884 29.3985 189.353 28.871 188.225 27.8158C187.097 26.7343 186.533 25.2572 186.533 23.3843V14.3234H182.946V9.65443H183.954C184.948 9.65443 185.7 9.37746 186.21 8.82352C186.747 8.2432 187.016 7.49142 187.016 6.56818V3.83803H191.851Z" fill="#F5F1D5"/>
<path d="M207.675 36.7976H201.994L206.668 26.6684L198.246 9.65443H204.25L209.528 21.0498L214.404 9.65443H220.125L207.675 36.7976Z" fill="#F5F1D5"/>
<path d="M226.567 27.4465C224.919 29.9183 223.432 32.1204 222.105 34.0528C220.801 35.9628 219.645 37.6481 218.638 39.1086C217.631 40.5467 216.773 41.8051 216.064 42.8837C215.355 43.9398 214.771 44.8723 214.313 45.6812C213.879 46.4677 213.558 47.153 213.352 47.7373C213.146 48.3215 213.043 48.8608 213.043 49.3551C213.043 49.8045 213.169 50.1978 213.421 50.5348C213.673 50.8719 214.039 51.0404 214.519 51.0404C215.137 51.0404 215.744 50.8606 216.338 50.5011C216.956 50.1416 217.54 49.6809 218.089 49.1192C218.638 48.535 219.142 47.8945 219.599 47.198C220.08 46.5014 220.492 45.816 220.835 45.1419C221.178 44.4453 221.441 43.8049 221.624 43.2207C221.83 42.614 221.933 42.1421 221.933 41.8051C221.933 41.6927 221.91 41.6029 221.865 41.5354C221.842 41.4456 221.807 41.3557 221.762 41.2658C221.716 41.1534 221.67 41.0186 221.624 40.8613C221.601 40.704 221.59 40.4906 221.59 40.2209C221.59 39.794 221.727 39.4008 222.002 39.0412C222.299 38.6817 222.677 38.5019 223.135 38.5019C223.524 38.5019 223.844 38.5918 224.096 38.7716C224.347 38.9289 224.542 39.1423 224.679 39.412C224.839 39.6816 224.942 39.985 224.988 40.322C225.057 40.6366 225.091 40.9512 225.091 41.2658C225.091 41.7601 225.022 42.2994 224.885 42.8837C225.16 43.1533 225.537 43.4117 226.018 43.6589C226.498 43.8836 227.002 43.9959 227.528 43.9959C228.306 43.9959 228.992 43.8162 229.587 43.4567C230.205 43.0971 230.743 42.6253 231.201 42.041L231.441 42.2433C230.983 42.8949 230.4 43.4229 229.69 43.8274C229.004 44.2094 228.283 44.4004 227.528 44.4004C226.979 44.4004 226.475 44.2993 226.018 44.0971C225.583 43.8948 225.171 43.6364 224.782 43.3218C224.439 44.4903 223.924 45.5689 223.237 46.5576C222.551 47.5463 221.739 48.4001 220.801 49.1192C219.885 49.8382 218.867 50.4112 217.746 50.8382C216.624 51.2426 215.457 51.4449 214.245 51.4449C212.963 51.4449 212.002 51.119 211.362 50.4674C210.744 49.8158 210.435 48.9394 210.435 47.8384C210.435 47.4788 210.503 47.0856 210.641 46.6587C210.755 46.2317 210.973 45.7037 211.293 45.0745C211.636 44.4453 212.094 43.6701 212.666 42.7488C213.238 41.8051 213.97 40.6479 214.863 39.2772C215.778 37.9065 216.876 36.2661 218.158 34.3562C219.439 32.4462 220.949 30.1992 222.688 27.6151L226.567 27.4465Z" fill="#F5F1D5"/>
<path d="M221.262 53.5683C221.148 53.5458 220.942 53.5346 220.644 53.5346C219.66 53.5346 218.905 53.8829 218.379 54.5795C217.83 55.2761 217.555 56.1299 217.555 57.1411C217.555 58.332 217.933 59.2645 218.688 59.9387C219.42 60.6128 220.335 60.9498 221.434 60.9498C222.601 60.9498 223.699 60.7026 224.729 60.2083C225.758 59.7364 226.719 59.096 227.612 58.2871C228.504 57.5006 229.339 56.5906 230.117 55.5569C230.918 54.5458 231.651 53.5009 232.314 52.4223C233.001 51.3437 233.641 50.2876 234.236 49.254C234.831 48.2204 235.38 47.2878 235.884 46.4564L235.815 46.389C235.472 46.7935 235.037 47.2766 234.511 47.8384C234.007 48.3777 233.435 48.9057 232.795 49.4225C232.154 49.9169 231.479 50.3438 230.77 50.7033C230.06 51.0629 229.339 51.2426 228.607 51.2426C227.852 51.2426 227.314 51.0292 226.994 50.6022C226.651 50.1753 226.479 49.6697 226.479 49.0855C226.479 48.5237 226.639 47.8833 226.96 47.1643C227.28 46.4452 227.681 45.6587 228.161 44.8049C228.664 43.9285 229.225 43.0072 229.843 42.041C230.461 41.0748 231.079 40.0749 231.696 39.0412L235.335 38.9064C233.413 41.85 231.914 44.1757 230.838 45.8835C229.763 47.5912 229.225 48.8046 229.225 49.5236C229.225 49.7933 229.305 50.018 229.465 50.1978C229.648 50.355 229.866 50.4337 230.117 50.4337C230.529 50.4337 231.056 50.2315 231.696 49.827C232.337 49.4001 233.012 48.8383 233.721 48.1417C234.454 47.4451 235.186 46.6474 235.918 45.7486C236.65 44.8273 237.314 43.8836 237.909 42.9174C238.412 42.1084 238.859 41.3669 239.248 40.6928C239.637 40.0187 239.923 39.4682 240.106 39.0412L243.469 38.9064C242.234 40.9962 241.032 43.0859 239.865 45.1756C238.721 47.2429 237.52 49.2989 236.261 51.3437C237.36 51.0292 238.447 50.546 239.522 49.8944C240.598 49.2203 241.627 48.4451 242.611 47.5687C243.618 46.6924 244.545 45.7599 245.391 44.7712C246.261 43.7825 247.039 42.8162 247.725 41.8725L248 42.1084C247.222 43.2095 246.364 44.2881 245.426 45.3442C244.488 46.3778 243.492 47.3328 242.44 48.2091C241.41 49.063 240.346 49.8045 239.248 50.4337C238.149 51.0629 237.051 51.5123 235.952 51.7819C235.129 53.1526 234.202 54.4222 233.172 55.5906C232.143 56.7591 231.01 57.7703 229.774 58.6241C228.539 59.478 227.2 60.1409 225.758 60.6128C224.317 61.1071 222.772 61.3543 221.125 61.3543C220.301 61.3543 219.5 61.2756 218.722 61.1183C217.944 60.9835 217.258 60.7363 216.663 60.3768C216.068 60.0398 215.587 59.5791 215.221 58.9949C214.855 58.4331 214.672 57.7366 214.672 56.9052C214.672 56.231 214.821 55.6581 215.118 55.1862C215.393 54.7143 215.77 54.3211 216.251 54.0065C216.708 53.7144 217.246 53.4897 217.864 53.3324C218.459 53.1975 219.077 53.1301 219.717 53.1301C219.992 53.1301 220.278 53.1414 220.576 53.1638C220.85 53.1863 221.079 53.22 221.262 53.265V53.5683Z" fill="#F5F1D5"/>
<path d="M71.5803 62.1359L67.7716 56.468C67.7089 56.7993 67.5914 57.1182 67.424 57.4118L67.4047 57.4427L60 68.3315L71.5324 85.7824C72.1279 86.8384 72.8068 87.1094 73.7154 87.1288C73.7243 87.1288 73.7328 87.1288 73.7413 87.1288H73.7884L83.6167 87.2002H83.7121C84.0202 87.2025 84.3257 87.1448 84.6113 87.0304C84.8968 86.9159 85.1568 86.747 85.3763 86.5333C85.5957 86.3195 85.7704 86.0651 85.8904 85.7846C86.0104 85.5041 86.0732 85.203 86.0754 84.8985L86.0847 83.6837L71.5803 62.1301V62.1359Z" fill="#F5F1D5"/>
<path d="M86.399 41.235C86.4034 40.62 86.1606 40.0286 85.7238 39.5906C85.2871 39.1526 84.6922 38.9039 84.07 38.8993L74.0992 38.8271C73.4791 38.8294 72.8845 39.0716 72.4428 39.5018C72.001 39.932 71.7473 40.5161 71.7359 41.1289L71.593 60.4086L86.0974 81.9622L86.399 41.235Z" fill="#F5F1D5"/>
<path d="M47.257 40.9515C47.2615 40.3365 47.0187 39.745 46.5819 39.3069C46.1452 38.8689 45.5503 38.6203 44.928 38.6158L34.9572 38.5436C34.6492 38.5414 34.3437 38.5992 34.0582 38.7137C33.7727 38.8282 33.5128 38.9971 33.2934 39.2108C33.074 39.4246 32.8993 39.6789 32.7794 39.9594C32.6594 40.2398 32.5965 40.5409 32.5943 40.8454L32.2908 81.7779L47.1122 60.501L47.257 40.9515Z" fill="#F5F1D5"/>
<path d="M66.4877 54.5246C66.3827 54.3441 66.2623 54.1728 66.1278 54.0124C65.8964 53.7709 65.6175 53.5785 65.3082 53.4473C64.9989 53.316 64.6657 53.2486 64.3291 53.2492L54.7657 53.1827C54.3037 53.1892 53.8514 53.3138 53.4526 53.5443C53.0538 53.7749 52.7222 54.1035 52.49 54.4983L47.332 61.8843L32.2762 83.4997L32.2689 84.513C32.2657 84.8183 32.3383 85.1197 32.4805 85.3908C32.668 85.8356 32.9882 86.2133 33.3984 86.4736C33.8086 86.734 34.2894 86.8645 34.7766 86.8479L44.5404 86.9185H44.5686H44.5798H44.8003C45.2628 86.9143 45.7161 86.7907 46.1152 86.5599C46.5144 86.3292 46.8456 85.9993 47.076 85.603L59.4198 67.4499L66.5827 56.9164C66.7756 56.5431 66.8681 56.1271 66.8515 55.7082C66.8348 55.2894 66.7096 54.8818 66.4877 54.5246Z" fill="#F5F1D5"/>
<path d="M106.619 54.3718L106.5 70.3076L121.278 54.9653L121.281 54.5283" fill="#F5F1D5"/>
<path d="M106.387 85.693C106.38 86.6181 107.425 87.3756 108.72 87.3848L118.691 87.4569C119.987 87.4665 121.043 86.7242 121.05 85.7991L121.269 56.2297L106.491 71.572L106.387 85.693Z" fill="#F5F1D5"/>
<path d="M136.902 53.7735C137.838 53.7803 138.604 52.748 138.614 51.4672L138.687 41.613C138.696 40.3326 137.945 39.2888 137.009 39.2823L107.09 39.0659L122.614 53.6704L136.902 53.7735Z" fill="#F5F1D5"/>
<path d="M91.1176 38.9505C90.1815 38.9436 89.4154 39.9763 89.4057 41.2568L89.3327 51.1109C89.3235 52.3914 90.0745 53.4352 91.0102 53.442L120.93 53.6584L105.406 39.0539L91.1176 38.9505Z" fill="#F5F1D5"/>
<path d="M157.123 64.4065L160.932 70.0732C160.995 69.7419 161.112 69.4231 161.28 69.1294L161.299 69.0988L168.704 58.2097L157.171 40.7592C156.576 39.7028 155.897 39.4322 154.988 39.4124C154.979 39.4124 154.971 39.4124 154.962 39.4124H154.915L145.087 39.3414H144.991C144.683 39.3392 144.378 39.3969 144.092 39.5114C143.807 39.6259 143.547 39.7948 143.327 40.0086C143.108 40.2223 142.933 40.4767 142.813 40.7571C142.693 41.0376 142.631 41.3386 142.628 41.6431L142.619 42.8579L157.123 64.4114V64.4065Z" fill="#F5F1D5"/>
<path d="M142.306 85.3083C142.302 85.9232 142.544 86.5148 142.981 86.9528C143.418 87.3908 144.013 87.6394 144.635 87.6439L154.606 87.7161C155.226 87.7138 155.821 87.4716 156.262 87.0414C156.704 86.6112 156.958 86.0272 156.969 85.4144L157.112 66.1346L142.608 44.5811L142.306 85.3083Z" fill="#F5F1D5"/>
<path d="M181.452 85.5923C181.449 85.8968 181.508 86.1988 181.624 86.481C181.739 86.7632 181.91 87.02 182.127 87.2369C182.343 87.4538 182.6 87.6265 182.884 87.7451C183.168 87.8637 183.473 87.9258 183.781 87.928L193.751 88.0001C194.06 88.0023 194.365 87.9446 194.651 87.8301C194.936 87.7156 195.196 87.5467 195.415 87.3329C195.635 87.1192 195.809 86.8649 195.929 86.5844C196.049 86.304 196.112 86.0029 196.114 85.6984L196.418 44.7659L181.597 66.0431L181.452 85.5923Z" fill="#F5F1D5"/>
<path d="M162.218 72.0188C162.323 72.1992 162.443 72.3704 162.578 72.5306C162.809 72.7722 163.088 72.9645 163.397 73.0957C163.707 73.227 164.04 73.2944 164.376 73.2939L173.94 73.3607C174.402 73.3541 174.854 73.2294 175.253 72.9988C175.652 72.7682 175.983 72.4395 176.215 72.0447L181.374 64.6583L196.431 43.0433L196.439 42.0304C196.442 41.7251 196.369 41.4237 196.227 41.1526C196.04 40.7078 195.72 40.33 195.309 40.0696C194.899 39.8092 194.418 39.6786 193.931 39.6951L184.167 39.6245H184.139H184.128H183.907C183.445 39.6288 182.992 39.7525 182.592 39.9833C182.193 40.2141 181.862 40.5441 181.632 40.9404L169.288 59.0901L162.125 69.6236C161.931 69.9972 161.838 70.4137 161.854 70.8332C161.87 71.2527 161.996 71.661 162.218 72.0188Z" fill="#F5F1D5"/>
</svg>
