<svg width="145" height="154" viewBox="0 0 145 154" fill="none" xmlns="http://www.w3.org/2000/svg">
<g style="mix-blend-mode:multiply">
<path fill-rule="evenodd" clip-rule="evenodd" d="M70.7984 131.91C131.761 148.647 137.337 103.968 137.337 69.4986C137.337 35.0295 108.342 -0.235236 63.364 13.0142C18.3855 26.2636 1.65799 60.4332 4.26005 69.4986C4.41617 70.0426 4.57363 70.6856 4.74488 71.4177L5.20891 73.427C8.218 86.3778 16.5418 117.015 70.7984 131.91Z" fill="#5390F4"/>
</g>
<g style="mix-blend-mode:multiply">
<path fill-rule="evenodd" clip-rule="evenodd" d="M70.2169 127.652C129.187 143.819 134.58 100.66 134.58 67.3628C134.58 34.0659 106.534 0.000411461 63.0255 12.7993C19.5174 25.5981 3.33672 58.6057 5.85372 67.3628C6.00474 67.8882 6.15705 68.5094 6.3227 69.2165L6.77156 71.1575C9.68229 83.6679 17.7339 113.263 70.2169 127.652Z" fill="#5390F4"/>
</g>
<g style="mix-blend-mode:multiply">
<path fill-rule="evenodd" clip-rule="evenodd" d="M51.2746 129.057C103.723 162.591 123.79 121.71 135.181 88.9276C146.571 56.1455 130.65 14.2283 83.4942 13.8319C36.3388 13.4356 9.13837 41.0991 8.61734 50.4727C8.59129 50.9414 8.54337 51.4758 8.48238 52.0725L8.40349 52.8181L8.22161 54.483C6.80373 67.6695 4.59573 99.2127 51.2746 129.057Z" fill="#5AC6F7"/>
</g>
<g style="mix-blend-mode:multiply">
<path fill-rule="evenodd" clip-rule="evenodd" d="M89.2588 129.294C152.79 128.632 144.153 84.3806 133.376 51.4176C122.599 18.4547 83.846 -7.3421 44.9754 17.6256C6.10487 42.5933 0.791624 79.8432 6.11435 87.8011C6.43371 88.2786 6.78536 88.8505 7.17799 89.5037L8.24997 91.2984L8.73335 92.1008C15.9847 104.061 33.9865 129.87 89.2588 129.294Z" fill="#00BFA5"/>
</g>
<g style="mix-blend-mode:multiply">
<path fill-rule="evenodd" clip-rule="evenodd" d="M25.3255 113.964C54.7993 166.597 93.0418 139.311 119.557 115.367C146.072 91.4228 153.059 47.4223 111.622 26.3705C70.1851 5.31876 32.2803 17.8029 27.1143 25.8506C26.8043 26.3334 26.419 26.8861 25.9749 27.5097L24.7515 29.2177C16.8794 40.2382 -0.906267 67.1199 25.3255 113.964Z" fill="#20E9B7"/>
</g>
<path d="M35.8342 98.1339L35.5823 99.9739H36.958V100.456H35.5145L35.2917 102.121H34.7685L34.9914 100.456H33.0048L32.7728 102.121H32.2497L32.4725 100.456H31.0968V99.9739H32.5403L32.7922 98.1339H31.4068V97.6525H32.86L33.0828 95.9879H33.6157L33.3832 97.6525H35.3789L35.6017 95.9879H36.1243L35.902 97.6525H37.2675V98.1339H35.8342ZM35.3111 98.1339H33.325L33.0635 99.9739H35.0592L35.3111 98.1339Z" fill="#1CE4B1"/>
<path d="M47.2355 97.4032L45.3748 102.121H44.7483L43.1956 98.2553L41.644 102.121H41.0175L39.1661 97.4032H39.802L41.3448 101.412L42.925 97.4032H43.4964L45.0673 101.412L46.6288 97.4032H47.2355Z" fill="#1CE4B1"/>
<path d="M52.4568 101.788C52.3239 101.898 52.1676 101.981 51.9982 102.031C51.8144 102.086 51.6225 102.114 51.4295 102.113C51.2379 102.134 51.0439 102.113 50.8619 102.053C50.6798 101.993 50.5143 101.896 50.3775 101.767C50.2407 101.639 50.1361 101.483 50.0714 101.311C50.0067 101.14 49.9835 100.956 50.0037 100.775V97.9924H49.1342V97.4659H50.0037V96.4597H50.6613V97.4659H52.1422V97.991H50.6613V100.738C50.6439 100.966 50.7221 101.19 50.8788 101.364C50.9613 101.439 51.0595 101.496 51.1669 101.533C51.2744 101.57 51.3889 101.586 51.503 101.579C51.637 101.579 51.7701 101.558 51.8969 101.517C52.0174 101.48 52.129 101.42 52.2254 101.342L52.4568 101.788Z" fill="#1CE4B1"/>
<path d="M61.8944 97.9144C62.0812 98.1174 62.2238 98.3541 62.314 98.6106C62.4041 98.867 62.4399 99.1381 62.4193 99.408V102.121H61.7597V99.4692C61.7889 99.0675 61.6577 98.6702 61.3928 98.3575C61.2587 98.2266 61.0969 98.1247 60.9182 98.0588C60.7395 97.9929 60.5481 97.9646 60.3569 97.9756C60.1353 97.9643 59.9136 97.9986 59.7069 98.076C59.5002 98.1535 59.3133 98.2724 59.1585 98.4247C58.8507 98.7686 58.6942 99.2133 58.7219 99.6654V102.12H58.0623V99.4692C58.0914 99.0675 57.9603 98.6702 57.6953 98.3575C57.5598 98.226 57.3964 98.1239 57.2161 98.058C57.0358 97.9921 56.8428 97.964 56.6502 97.9756C56.4294 97.9652 56.2087 97.9999 56.0029 98.0773C55.7971 98.1547 55.6108 98.2732 55.4565 98.4247C55.1457 98.7672 54.9873 99.2125 55.0152 99.6654V102.12H54.3556V97.4435H54.9873V98.2968C55.1568 98.0153 55.4077 97.7867 55.7099 97.6386C56.0412 97.4801 56.4078 97.4009 56.7782 97.4079C57.1494 97.3986 57.5165 97.4839 57.8419 97.655C58.1439 97.8243 58.3796 98.0838 58.5129 98.3936C58.6921 98.0852 58.961 97.8334 59.287 97.6688C59.6431 97.4894 60.0408 97.3991 60.4431 97.4064C60.7085 97.3914 60.9742 97.4288 61.2239 97.5161C61.4735 97.6035 61.7017 97.7391 61.8944 97.9144V97.9144Z" fill="#1CE4B1"/>
<path d="M69.545 97.4032L67.2824 102.121H66.5765L64.3236 97.4032H65.0391L66.9439 101.421L68.8681 97.4032H69.545Z" fill="#1CE4B1"/>
<path d="M75.6531 97.8595C75.8402 98.037 75.9842 98.2482 76.0759 98.4796C76.1675 98.711 76.2048 98.9574 76.1851 99.2027V102.075H75.5273V101.352C75.3669 101.598 75.1293 101.794 74.8453 101.916C74.5111 102.058 74.1451 102.127 73.7764 102.118C73.2914 102.142 72.8125 102.011 72.4215 101.749C72.2668 101.632 72.1418 101.485 72.055 101.32C71.9681 101.155 71.9215 100.974 71.9184 100.791C71.9152 100.608 71.9556 100.426 72.0366 100.258C72.1177 100.091 72.2376 99.9409 72.3882 99.8193C72.8257 99.5456 73.3538 99.4182 73.8828 99.4586H75.4978V99.1768C75.5105 99.0097 75.4842 98.8421 75.4208 98.6849C75.3574 98.5277 75.2581 98.3845 75.1296 98.2647C74.8286 98.039 74.4438 97.9272 74.0548 97.9525C73.7383 97.9518 73.4242 98.0015 73.1266 98.0993C72.8461 98.1873 72.5867 98.3233 72.3624 98.5L72.0528 98.0332C72.3263 97.8255 72.6418 97.6684 72.9815 97.5708C73.3499 97.4611 73.7354 97.406 74.123 97.4078C74.6779 97.3731 75.2261 97.5349 75.6531 97.8595V97.8595ZM74.8792 101.383C75.1615 101.215 75.378 100.97 75.4978 100.683V99.9255H73.9016C73.0309 99.9255 72.5956 100.201 72.5956 100.753C72.5905 100.877 72.6186 100.999 72.6775 101.111C72.7365 101.222 72.8244 101.319 72.9337 101.392C73.2136 101.562 73.5466 101.644 73.8822 101.625C74.2333 101.635 74.5797 101.55 74.8792 101.383V101.383Z" fill="#1CE4B1"/>
<path d="M78.089 95.5161H79.0383V102.121H78.089V95.5161Z" fill="#1CE4B1"/>
<path d="M85.6755 99.9494H81.5957C81.6057 100.171 81.6626 100.389 81.763 100.59C81.8633 100.79 82.0051 100.97 82.1799 101.117C82.5499 101.421 83.0268 101.58 83.5151 101.563C83.8014 101.566 84.0855 101.513 84.3496 101.408C84.6024 101.306 84.8275 101.151 85.0079 100.954L85.3788 101.36C85.1606 101.608 84.8821 101.802 84.5675 101.925C84.2279 102.057 83.8637 102.124 83.4965 102.12C83.033 102.129 82.5748 102.024 82.166 101.816C81.788 101.621 81.4749 101.33 81.2619 100.975C81.0421 100.603 80.9301 100.183 80.9374 99.7573C80.9295 99.3334 81.0359 98.9147 81.2465 98.541C81.4435 98.1918 81.7389 97.9017 82.0995 97.7033C82.4703 97.5011 82.8915 97.3975 83.3188 97.4035C83.7447 97.3972 84.1645 97.5008 84.5335 97.7033C84.8904 97.9012 85.1825 98.1895 85.3773 98.5361C85.5864 98.9118 85.6916 99.3318 85.6832 99.7568L85.6755 99.9494ZM82.1382 98.3661C81.8158 98.6596 81.622 99.0583 81.5957 99.482H85.0543C85.0278 99.0583 84.8341 98.6597 84.5119 98.3661C84.1844 98.0905 83.7622 97.9384 83.325 97.9384C82.8878 97.9384 82.4656 98.0905 82.1382 98.3661V98.3661Z" fill="#1CE4B1"/>
<path d="M91.808 97.9168C91.9898 98.1168 92.1293 98.352 92.218 98.6081C92.3068 98.8643 92.3429 99.136 92.3242 99.4067V102.121H91.6978V99.468C91.7256 99.0638 91.5959 98.6647 91.3363 98.3558C91.2001 98.2231 91.0381 98.1206 90.8605 98.0549C90.6828 97.9891 90.4936 97.9614 90.3047 97.9737C90.0872 97.9622 89.8696 97.9962 89.6656 98.0735C89.4616 98.1508 89.2757 98.2698 89.1194 98.423C88.9681 98.59 88.8516 98.7859 88.7765 98.999C88.7015 99.2122 88.6695 99.4384 88.6825 99.6642V102.12H88.057V97.4413H88.656V98.3044C88.8258 98.0201 89.0719 97.7901 89.3658 97.641C89.6932 97.4785 90.0546 97.3979 90.4194 97.4057C90.673 97.3926 90.9266 97.431 91.1651 97.5188C91.4037 97.6066 91.6223 97.742 91.808 97.9168V97.9168Z" fill="#1CE4B1"/>
<path d="M96.0111 101.817C95.608 101.622 95.2752 101.331 95.0509 100.976C94.8153 100.603 94.6952 100.182 94.7026 99.7555C94.6948 99.3302 94.815 98.9107 95.0509 98.5401C95.2765 98.1873 95.6091 97.8974 96.0111 97.7031C96.4371 97.4994 96.9151 97.3962 97.3992 97.4036C97.8171 97.3972 98.231 97.4769 98.6082 97.6366C98.9576 97.7879 99.2497 98.026 99.449 98.3218L98.9216 98.639C98.7593 98.4177 98.5323 98.2395 98.2649 98.1231C97.9949 98.008 97.6987 97.9494 97.3992 97.9518C97.0429 97.9467 96.6913 98.0242 96.3793 98.1764C96.0795 98.3239 95.8342 98.5449 95.6728 98.8128C95.5059 99.106 95.419 99.4297 95.419 99.758C95.419 100.086 95.5059 100.41 95.6728 100.703C95.8348 100.971 96.08 101.191 96.3793 101.339C96.6915 101.491 97.043 101.569 97.3992 101.564C97.6982 101.566 97.9941 101.509 98.2649 101.397C98.5326 101.283 98.7598 101.106 98.9216 100.886L99.449 101.202C99.2486 101.499 98.9543 101.737 98.6026 101.888C98.2271 102.046 97.8152 102.126 97.3992 102.121C96.9147 102.127 96.4367 102.022 96.0111 101.817V101.817Z" fill="#1CE4B1"/>
<path d="M101.485 96.2822C101.441 96.2407 101.406 96.1909 101.382 96.1358C101.359 96.0807 101.347 96.0215 101.348 95.9618C101.347 95.9035 101.359 95.8457 101.383 95.7921C101.406 95.7385 101.441 95.6903 101.485 95.6503C101.528 95.6065 101.581 95.572 101.639 95.5489C101.697 95.5259 101.76 95.5147 101.822 95.5162C101.885 95.5149 101.947 95.5256 102.005 95.5478C102.063 95.5701 102.115 95.6034 102.16 95.6458C102.204 95.6849 102.238 95.7324 102.262 95.7853C102.285 95.8381 102.297 95.8952 102.297 95.9529C102.296 96.0442 102.268 96.1332 102.216 96.209C102.163 96.2847 102.089 96.3438 102.003 96.3789C101.916 96.414 101.821 96.4236 101.729 96.4064C101.637 96.3892 101.553 96.346 101.486 96.2822H101.485ZM101.494 97.4393H102.142V102.121H101.494V97.4393Z" fill="#1CE4B1"/>
<path d="M107.931 97.8595C108.118 98.0369 108.262 98.2482 108.353 98.4796C108.445 98.711 108.482 98.9574 108.463 99.2027V102.075H107.805V101.352C107.644 101.598 107.407 101.794 107.123 101.916C106.789 102.058 106.423 102.127 106.054 102.118C105.569 102.142 105.09 102.011 104.699 101.749C104.544 101.632 104.419 101.485 104.333 101.32C104.246 101.155 104.199 100.974 104.196 100.791C104.193 100.608 104.233 100.426 104.314 100.258C104.395 100.091 104.515 99.9409 104.666 99.8193C105.103 99.5456 105.631 99.4182 106.16 99.4586H107.776V99.1768C107.789 99.0097 107.762 98.8421 107.699 98.6849C107.635 98.5277 107.536 98.3845 107.408 98.2647C107.107 98.0389 106.722 97.9271 106.333 97.9524C106.016 97.9517 105.702 98.0014 105.405 98.0992C105.124 98.1872 104.865 98.3233 104.64 98.5L104.331 98.0332C104.604 97.8254 104.92 97.6684 105.26 97.5708C105.628 97.461 106.013 97.406 106.401 97.4078C106.956 97.3732 107.504 97.535 107.931 97.8595ZM107.156 101.383C107.439 101.215 107.656 100.97 107.776 100.682V99.925H106.18C105.309 99.925 104.874 100.201 104.873 100.752C104.868 100.876 104.896 100.999 104.955 101.11C105.014 101.222 105.102 101.318 105.212 101.392C105.492 101.561 105.825 101.643 106.16 101.625C106.511 101.634 106.857 101.55 107.156 101.383V101.383Z" fill="#1CE4B1"/>
<path d="M24.6301 66.7388H16V53.504H18.6233V64.2748H24.6301V66.7388Z" fill="#F6F3E1"/>
<path d="M28.3093 61.1014H32.4913C32.466 60.5912 32.2759 60.1618 31.921 59.8134C31.5789 59.465 31.072 59.2907 30.4003 59.2907C29.792 59.2907 29.2978 59.4774 28.9176 59.8507C28.5374 60.2241 28.3346 60.641 28.3093 61.1014ZM32.7384 63.4908L34.8484 64.1068C34.595 64.953 34.0944 65.6499 33.3467 66.1975C32.6117 66.745 31.6929 67.0188 30.5904 67.0188C29.2471 67.0188 28.1065 66.577 27.1687 65.6935C26.231 64.7975 25.7621 63.6028 25.7621 62.1094C25.7621 60.6907 26.2183 59.5334 27.1307 58.6374C28.0432 57.7289 29.1204 57.2747 30.3623 57.2747C31.807 57.2747 32.9348 57.6978 33.7459 58.5441C34.5696 59.3903 34.9815 60.5539 34.9815 62.0348C34.9815 62.1343 34.9752 62.2463 34.9625 62.3708C34.9625 62.4952 34.9625 62.5948 34.9625 62.6694L34.9435 62.8001H28.2523C28.2776 63.3974 28.5184 63.8952 28.9746 64.2934C29.4308 64.6917 29.9758 64.8908 30.6094 64.8908C31.6866 64.8908 32.3963 64.4241 32.7384 63.4908Z" fill="#F6F3E1"/>
<path d="M36.4021 64.2374C36.4021 63.4534 36.6619 62.825 37.1815 62.3521C37.7011 61.8792 38.3727 61.5805 39.1965 61.4561L41.4966 61.1201C41.9655 61.0579 42.1999 60.8401 42.1999 60.4667C42.1999 60.1183 42.0605 59.8321 41.7817 59.6081C41.5156 59.3841 41.1291 59.2721 40.6222 59.2721C40.0899 59.2721 39.6654 59.4152 39.3485 59.7014C39.0444 59.9876 38.8733 60.3423 38.8353 60.7654L36.5922 60.2987C36.6809 59.5023 37.0801 58.7992 37.7898 58.1894C38.4995 57.5796 39.4373 57.2747 40.6031 57.2747C41.9971 57.2747 43.0236 57.6045 43.6826 58.2641C44.3416 58.9112 44.6711 59.745 44.6711 60.7654V65.2828C44.6711 65.8303 44.7091 66.3157 44.7852 66.7388H42.466C42.4027 66.465 42.371 66.0979 42.371 65.6375C41.7754 66.5459 40.8566 67.0001 39.6147 67.0001C38.6515 67.0001 37.8722 66.7264 37.2766 66.1788C36.6936 65.6312 36.4021 64.9841 36.4021 64.2374ZM40.1469 65.1521C40.7425 65.1521 41.2304 64.9903 41.6106 64.6668C42.0035 64.3308 42.1999 63.7832 42.1999 63.0241V62.6134L40.0899 62.9308C39.3169 63.0428 38.9303 63.4285 38.9303 64.0881C38.9303 64.3868 39.0381 64.6419 39.2535 64.8535C39.4689 65.0526 39.7667 65.1521 40.1469 65.1521Z" fill="#F6F3E1"/>
<path d="M52.9222 57.5174V60.0187C52.6688 59.969 52.4153 59.9441 52.1619 59.9441C51.4395 59.9441 50.8566 60.1494 50.413 60.5601C49.9695 60.9583 49.7477 61.6179 49.7477 62.5388V66.7388H47.2195V57.5547H49.6717V58.9174C50.1279 57.9592 51.015 57.48 52.333 57.48C52.4724 57.48 52.6688 57.4925 52.9222 57.5174Z" fill="#F6F3E1"/>
<path d="M57.2288 61.4561V66.7388H54.7006V57.5547H57.1528V58.6934C57.4189 58.2454 57.7991 57.9032 58.2934 57.6667C58.7876 57.4303 59.3072 57.312 59.8521 57.312C60.9546 57.312 61.791 57.6543 62.3613 58.3387C62.9443 59.0107 63.2357 59.8818 63.2357 60.9521V66.7388H60.7075V61.3814C60.7075 60.8339 60.5618 60.3921 60.2703 60.0561C59.9915 59.7201 59.5606 59.5521 58.9777 59.5521C58.4454 59.5521 58.0209 59.7325 57.7041 60.0934C57.3873 60.4543 57.2288 60.9085 57.2288 61.4561Z" fill="#F6F3E1"/>
<path d="M65.2314 64.2374C65.2314 63.4534 65.4912 62.825 66.0108 62.3521C66.5303 61.8792 67.202 61.5805 68.0257 61.4561L70.3258 61.1201C70.7947 61.0579 71.0292 60.8401 71.0292 60.4667C71.0292 60.1183 70.8898 59.8321 70.611 59.6081C70.3448 59.3841 69.9583 59.2721 69.4514 59.2721C68.9192 59.2721 68.4946 59.4152 68.1778 59.7014C67.8737 59.9876 67.7026 60.3423 67.6646 60.7654L65.4215 60.2987C65.5102 59.5023 65.9094 58.7992 66.6191 58.1894C67.3287 57.5796 68.2665 57.2747 69.4324 57.2747C70.8264 57.2747 71.8529 57.6045 72.5119 58.2641C73.1709 58.9112 73.5004 59.745 73.5004 60.7654V65.2828C73.5004 65.8303 73.5384 66.3157 73.6144 66.7388H71.2953C71.2319 66.465 71.2003 66.0979 71.2003 65.6375C70.6046 66.5459 69.6859 67.0001 68.4439 67.0001C67.4808 67.0001 66.7014 66.7264 66.1058 66.1788C65.5229 65.6312 65.2314 64.9841 65.2314 64.2374ZM68.9762 65.1521C69.5718 65.1521 70.0597 64.9903 70.4399 64.6668C70.8327 64.3308 71.0292 63.7832 71.0292 63.0241V62.6134L68.9192 62.9308C68.1461 63.0428 67.7596 63.4285 67.7596 64.0881C67.7596 64.3868 67.8673 64.6419 68.0828 64.8535C68.2982 65.0526 68.596 65.1521 68.9762 65.1521Z" fill="#F6F3E1"/>
<path d="M78.5009 66.7388H76.0488V53.224H78.539V58.5627C78.7671 58.2143 79.1282 57.9218 79.6225 57.6854C80.1294 57.4365 80.7123 57.312 81.3713 57.312C82.702 57.312 83.7538 57.76 84.5268 58.6561C85.2999 59.5521 85.6864 60.7032 85.6864 62.1094C85.6864 63.5157 85.2809 64.6792 84.4698 65.6001C83.6588 66.5086 82.5942 66.9628 81.2763 66.9628C79.9963 66.9628 79.0712 66.5148 78.5009 65.6188V66.7388ZM82.4929 64.0508C82.9364 63.5779 83.1582 62.937 83.1582 62.1281C83.1582 61.3192 82.9364 60.6845 82.4929 60.2241C82.062 59.7636 81.5107 59.5334 80.8391 59.5334C80.1674 59.5334 79.6098 59.7636 79.1663 60.2241C78.7227 60.6845 78.5009 61.3192 78.5009 62.1281C78.5009 62.937 78.7227 63.5779 79.1663 64.0508C79.6225 64.5112 80.1801 64.7414 80.8391 64.7414C81.5107 64.7414 82.062 64.5112 82.4929 64.0508Z" fill="#F6F3E1"/>
<path d="M90.2163 66.7388H87.6881V57.5547H90.2163V66.7388ZM87.384 54.5493C87.384 54.1262 87.5361 53.7653 87.8402 53.4667C88.1444 53.1556 88.5119 53 88.9427 53C89.3736 53 89.7411 53.1493 90.0453 53.448C90.3494 53.7467 90.5015 54.1138 90.5015 54.5493C90.5015 54.96 90.3494 55.3147 90.0453 55.6134C89.7411 55.912 89.3736 56.0614 88.9427 56.0614C88.5119 56.0614 88.1444 55.912 87.8402 55.6134C87.5361 55.3147 87.384 54.96 87.384 54.5493Z" fill="#F6F3E1"/>
<path d="M95.4513 66.7388H92.9231V53.224H95.4513V66.7388Z" fill="#F6F3E1"/>
<path d="M100.686 66.7388H98.158V57.5547H100.686V66.7388ZM97.8539 54.5493C97.8539 54.1262 98.0059 53.7653 98.3101 53.4667C98.6142 53.1556 98.9817 53 99.4126 53C99.8435 53 100.211 53.1493 100.515 53.448C100.819 53.7467 100.971 54.1138 100.971 54.5493C100.971 54.96 100.819 55.3147 100.515 55.6134C100.211 55.912 99.8435 56.0614 99.4126 56.0614C98.9817 56.0614 98.6142 55.912 98.3101 55.6134C98.0059 55.3147 97.8539 54.96 97.8539 54.5493Z" fill="#F6F3E1"/>
<path d="M106.51 54.8107V57.5547H108.392V59.7574H106.51V63.6028C106.51 63.9886 106.599 64.2623 106.777 64.4241C106.954 64.5859 107.233 64.6668 107.613 64.6668C107.955 64.6668 108.215 64.6419 108.392 64.5921V66.6455C108.025 66.7948 107.55 66.8695 106.967 66.8695C106.054 66.8695 105.332 66.6206 104.8 66.1228C104.267 65.6126 104.001 64.9157 104.001 64.0321V59.7574H102.309V57.5547H102.785C103.254 57.5547 103.608 57.424 103.849 57.1627C104.103 56.8889 104.229 56.5343 104.229 56.0987V54.8107H106.51Z" fill="#F6F3E1"/>
<path d="M113.976 70.3602H111.295L113.5 65.5815L109.528 57.5547H112.36L114.85 62.9308L117.15 57.5547H119.849L113.976 70.3602Z" fill="#F6F3E1"/>
<path d="M122.888 65.9485C122.111 67.1146 121.409 68.1535 120.783 69.0652C120.168 69.9663 119.623 70.7614 119.148 71.4504C118.673 72.1289 118.268 72.7225 117.933 73.2314C117.599 73.7296 117.323 74.1696 117.108 74.5512C116.902 74.9222 116.751 75.2456 116.654 75.5212C116.557 75.7968 116.508 76.0512 116.508 76.2845C116.508 76.4965 116.568 76.682 116.686 76.841C116.805 77 116.978 77.0795 117.205 77.0795C117.496 77.0795 117.782 76.9947 118.063 76.8251C118.354 76.6555 118.63 76.4382 118.889 76.1731C119.148 75.8975 119.385 75.5954 119.601 75.2668C119.828 74.9381 120.022 74.6148 120.184 74.2968C120.346 73.9682 120.47 73.666 120.557 73.3904C120.654 73.1042 120.702 72.8816 120.702 72.7225C120.702 72.6695 120.692 72.6271 120.67 72.5953C120.659 72.5529 120.643 72.5105 120.621 72.4681C120.6 72.4151 120.578 72.3515 120.557 72.2773C120.546 72.2031 120.54 72.1024 120.54 71.9752C120.54 71.7738 120.605 71.5882 120.735 71.4186C120.875 71.249 121.053 71.1642 121.269 71.1642C121.453 71.1642 121.604 71.2066 121.723 71.2914C121.841 71.3656 121.933 71.4663 121.998 71.5935C122.073 71.7208 122.122 71.8639 122.144 72.0229C122.176 72.1713 122.192 72.3197 122.192 72.4681C122.192 72.7013 122.16 72.9558 122.095 73.2314C122.224 73.3586 122.403 73.4805 122.629 73.5971C122.856 73.7031 123.094 73.7561 123.342 73.7561C123.709 73.7561 124.033 73.6713 124.313 73.5017C124.605 73.3321 124.859 73.1095 125.074 72.8339L125.188 72.9293C124.972 73.2367 124.697 73.4858 124.362 73.6766C124.038 73.8568 123.698 73.9469 123.342 73.9469C123.083 73.9469 122.845 73.8992 122.629 73.8038C122.424 73.7084 122.23 73.5865 122.046 73.4381C121.884 73.9894 121.642 74.4982 121.318 74.9646C120.994 75.4311 120.611 75.8339 120.168 76.1731C119.736 76.5124 119.256 76.7827 118.727 76.9841C118.198 77.1749 117.647 77.2703 117.075 77.2703C116.471 77.2703 116.017 77.1166 115.715 76.8092C115.423 76.5018 115.278 76.0883 115.278 75.5689C115.278 75.3993 115.31 75.2138 115.375 75.0123C115.429 74.8109 115.531 74.5618 115.683 74.265C115.844 73.9681 116.06 73.6024 116.33 73.1678C116.6 72.7225 116.946 72.1766 117.367 71.5299C117.798 70.8833 118.317 70.1094 118.921 69.2083C119.526 68.3073 120.238 67.2472 121.059 66.0281L122.888 65.9485Z" fill="#F6F3E1"/>
<path d="M120.386 78.2721C120.332 78.2615 120.235 78.2562 120.094 78.2562C119.63 78.2562 119.274 78.4205 119.025 78.7492C118.766 79.0778 118.637 79.4806 118.637 79.9577C118.637 80.5195 118.815 80.9595 119.171 81.2775C119.517 81.5955 119.948 81.7545 120.467 81.7545C121.017 81.7545 121.535 81.6379 122.021 81.4047C122.507 81.1821 122.96 80.88 123.381 80.4983C123.802 80.1273 124.196 79.698 124.563 79.2103C124.941 78.7333 125.287 78.2403 125.6 77.7315C125.924 77.2226 126.226 76.7244 126.507 76.2367C126.787 75.7491 127.046 75.3092 127.284 74.9169L127.252 74.8851C127.09 75.0759 126.884 75.3039 126.636 75.5689C126.399 75.8233 126.129 76.0724 125.827 76.3163C125.524 76.5495 125.206 76.7509 124.871 76.9205C124.536 77.0901 124.196 77.1749 123.851 77.1749C123.495 77.1749 123.241 77.0742 123.09 76.8728C122.928 76.6714 122.847 76.4329 122.847 76.1572C122.847 75.8922 122.923 75.5901 123.074 75.2509C123.225 74.9116 123.414 74.5406 123.64 74.1378C123.878 73.7243 124.142 73.2897 124.434 72.8339C124.725 72.378 125.017 71.9063 125.308 71.4186L127.025 71.355C126.118 72.7437 125.411 73.8409 124.904 74.6466C124.396 75.4523 124.142 76.0247 124.142 76.364C124.142 76.4912 124.18 76.5972 124.256 76.682C124.342 76.7562 124.445 76.7933 124.563 76.7933C124.758 76.7933 125.006 76.6979 125.308 76.5071C125.611 76.3057 125.929 76.0406 126.264 75.712C126.609 75.3834 126.955 75.007 127.3 74.583C127.646 74.1484 127.959 73.7031 128.239 73.2473C128.477 72.8657 128.687 72.5158 128.871 72.1978C129.054 71.8798 129.189 71.62 129.276 71.4186L130.863 71.355C130.28 72.3409 129.713 73.3268 129.162 74.3127C128.623 75.288 128.056 76.258 127.462 77.2226C127.98 77.0742 128.493 76.8463 129 76.5389C129.508 76.2208 129.994 75.8551 130.458 75.4417C130.933 75.0282 131.37 74.5883 131.769 74.1219C132.18 73.6554 132.547 73.1996 132.87 72.7543L133 72.8657C132.633 73.3851 132.228 73.8939 131.786 74.3922C131.343 74.8798 130.873 75.3304 130.377 75.7438C129.891 76.1466 129.389 76.4965 128.871 76.7933C128.353 77.0901 127.834 77.3021 127.316 77.4294C126.928 78.076 126.49 78.675 126.005 79.2262C125.519 79.7775 124.984 80.2545 124.402 80.6573C123.819 81.0602 123.187 81.3729 122.507 81.5955C121.827 81.8287 121.098 81.9453 120.321 81.9453C119.932 81.9453 119.554 81.9082 119.187 81.834C118.82 81.7704 118.497 81.6538 118.216 81.4842C117.935 81.3252 117.708 81.1079 117.536 80.8323C117.363 80.5672 117.277 80.2386 117.277 79.8464C117.277 79.5283 117.347 79.258 117.487 79.0354C117.617 78.8128 117.795 78.6273 118.022 78.4788C118.237 78.341 118.491 78.235 118.783 78.1608C119.063 78.0972 119.355 78.0654 119.657 78.0654C119.787 78.0654 119.922 78.0707 120.062 78.0813C120.191 78.0919 120.299 78.1078 120.386 78.129V78.2721Z" fill="#F6F3E1"/>
<path d="M49.7697 81.3705L47.9728 78.6966C47.9432 78.8529 47.8878 79.0033 47.8089 79.1419L47.7997 79.1564L44.3064 84.2935L49.7471 92.5264C50.028 93.0246 50.3483 93.1524 50.777 93.1616C50.7812 93.1616 50.7852 93.1616 50.7892 93.1616H50.8114L55.4481 93.1952H55.4931C55.6385 93.1963 55.7827 93.1691 55.9174 93.1151C56.0521 93.0611 56.1747 92.9815 56.2783 92.8806C56.3818 92.7798 56.4642 92.6597 56.5208 92.5274C56.5774 92.3951 56.6071 92.253 56.6081 92.1094L56.6125 91.5363L49.7697 81.3678V81.3705Z" fill="#F6F3E1"/>
<path d="M56.7608 71.51C56.7629 71.2199 56.6483 70.9409 56.4423 70.7342C56.2363 70.5276 55.9556 70.4103 55.6621 70.4081L50.9581 70.3741C50.6656 70.3752 50.385 70.4894 50.1766 70.6924C49.9682 70.8953 49.8485 71.1709 49.8432 71.46L49.7758 80.5556L56.6185 90.7241L56.7608 71.51Z" fill="#F6F3E1"/>
<path d="M38.2952 71.3763C38.2973 71.0862 38.1827 70.8071 37.9767 70.6004C37.7706 70.3938 37.49 70.2765 37.1964 70.2744L32.4925 70.2403C32.3471 70.2393 32.203 70.2665 32.0683 70.3205C31.9336 70.3746 31.811 70.4543 31.7075 70.5551C31.604 70.6559 31.5216 70.7759 31.465 70.9082C31.4084 71.0405 31.3787 71.1826 31.3777 71.3262L31.2345 90.6371L38.2269 80.5992L38.2952 71.3763Z" fill="#F6F3E1"/>
<path d="M47.3672 77.7798C47.3177 77.6946 47.2609 77.6138 47.1974 77.5382C47.0883 77.4242 46.9567 77.3335 46.8108 77.2715C46.6648 77.2096 46.5076 77.1778 46.3488 77.1781L41.8371 77.1467C41.6191 77.1498 41.4057 77.2086 41.2176 77.3173C41.0295 77.4261 40.873 77.5811 40.7635 77.7674L38.3301 81.2519L31.2271 91.4495L31.2237 91.9275C31.2222 92.0716 31.2564 92.2138 31.3235 92.3416C31.4119 92.5515 31.563 92.7297 31.7565 92.8525C31.9501 92.9753 32.1769 93.0369 32.4068 93.0291L37.0131 93.0624H37.0264H37.0317H37.1357C37.3539 93.0604 37.5677 93.0021 37.756 92.8932C37.9444 92.7844 38.1006 92.6287 38.2093 92.4418L44.0328 83.8776L47.4121 78.9082C47.503 78.7321 47.5467 78.5358 47.5388 78.3382C47.531 78.1406 47.4719 77.9483 47.3672 77.7798V77.7798Z" fill="#F6F3E1"/>
<path d="M66.2999 77.7077L66.2441 85.2258L73.2157 77.9877L73.2172 77.7815" fill="#F6F3E1"/>
<path d="M66.1904 92.4842C66.1872 92.9206 66.6801 93.278 67.2914 93.2823L71.9953 93.3164C72.6067 93.3209 73.1048 92.9707 73.1081 92.5342L73.2114 78.5842L66.2398 85.8222L66.1904 92.4842Z" fill="#F6F3E1"/>
<path d="M80.5867 77.4254C81.0283 77.4286 81.39 76.9416 81.3944 76.3373L81.4288 71.6884C81.4333 71.0843 81.079 70.5919 80.6374 70.5888L66.5222 70.4868L73.846 77.3768L80.5867 77.4254Z" fill="#F6F3E1"/>
<path d="M58.9869 70.4323C58.5452 70.429 58.1838 70.9162 58.1792 71.5203L58.1448 76.1693C58.1404 76.7733 58.4948 77.2658 58.9362 77.269L73.0514 77.3711L65.7276 70.4811L58.9869 70.4323Z" fill="#F6F3E1"/>
<path d="M90.1267 82.4417L91.9236 85.1151C91.9532 84.9589 92.0086 84.8084 92.0876 84.6699L92.0967 84.6555L95.59 79.5182L90.1493 71.2856C89.8684 70.7872 89.5481 70.6595 89.1194 70.6502C89.1153 70.6502 89.1112 70.6502 89.1072 70.6502H89.085L84.4483 70.6167H84.4031C84.2577 70.6156 84.1136 70.6429 83.9789 70.6969C83.8442 70.7509 83.7216 70.8306 83.6181 70.9314C83.5146 71.0323 83.4322 71.1523 83.3756 71.2846C83.319 71.4169 83.2894 71.5589 83.2883 71.7026L83.2839 72.2757L90.1267 82.4441V82.4417Z" fill="#F6F3E1"/>
<path d="M83.1364 92.3027C83.1342 92.5928 83.2488 92.8719 83.4549 93.0785C83.6609 93.2851 83.9416 93.4024 84.2351 93.4046L88.9391 93.4386C89.2317 93.4375 89.5122 93.3233 89.7206 93.1203C89.929 92.9174 90.0487 92.6418 90.0541 92.3527L90.1215 83.257L83.2787 73.0886L83.1364 92.3027Z" fill="#F6F3E1"/>
<path d="M101.604 92.4367C101.603 92.5804 101.631 92.7228 101.685 92.856C101.74 92.9891 101.821 93.1103 101.923 93.2126C102.025 93.3149 102.146 93.3964 102.28 93.4523C102.414 93.5083 102.558 93.5376 102.703 93.5386L107.407 93.5727C107.552 93.5737 107.696 93.5464 107.831 93.4924C107.966 93.4384 108.088 93.3587 108.192 93.2579C108.295 93.1571 108.378 93.0371 108.434 92.9047C108.491 92.7724 108.521 92.6304 108.522 92.4868L108.665 73.1758L101.673 83.2139L101.604 92.4367Z" fill="#F6F3E1"/>
<path d="M92.5301 86.033C92.5797 86.1181 92.6364 86.1989 92.6999 86.2745C92.8091 86.3884 92.9406 86.4792 93.0866 86.5411C93.2325 86.603 93.3897 86.6348 93.5485 86.6346L98.0602 86.6661C98.2782 86.663 98.4916 86.6042 98.6798 86.4954C98.8679 86.3866 99.0243 86.2315 99.1338 86.0453L101.568 82.5605L108.671 72.3631L108.675 71.8853C108.676 71.7412 108.642 71.599 108.575 71.4712C108.486 71.2613 108.335 71.0831 108.142 70.9602C107.948 70.8374 107.722 70.7757 107.492 70.7836L102.885 70.7502H102.872H102.867H102.763C102.545 70.7523 102.331 70.8106 102.142 70.9195C101.954 71.0284 101.798 71.1841 101.689 71.3711L95.8655 79.9336L92.4862 84.903C92.3948 85.0793 92.3508 85.2758 92.3585 85.4737C92.3662 85.6716 92.4253 85.8642 92.5301 86.033V86.033Z" fill="#F6F3E1"/>
</svg>
