<svg width="40" height="15" viewBox="0 0 40 15" fill="none" xmlns="http://www.w3.org/2000/svg">
<path d="M27.7065 7.43424C23.1162 2.93259 16.918 2.97119 12.3581 7.52981L11.1471 8.74052L11.1591 8.76264L8.77641 11.1598C6.21642 13.7354 3.13431 14.716 0 14.906V10.853C2.50579 10.694 4.96027 9.91948 6.99268 7.87472L8.23031 6.62956L8.21622 6.60343L10.5824 4.23783C16.1908 -1.36898 23.8142 -1.41645 29.4599 4.12028L31.9808 6.59244L31.9574 6.6366L34.3538 8.99644C36.1166 10.6453 38.0279 10.9988 40 10.9793V15C37.3782 14.9878 34.8241 14.499 32.5964 12.3053L30.0553 9.80305L30.0781 9.7601L27.7065 7.43424Z" fill="#20E9B7"/>
</svg>
